<?xml version="1.0" encoding="UTF-8"?><!DOCTYPE svg PUBLIC "-//W3C//DTD SVG 1.1//EN" "http://www.w3.org/Graphics/SVG/1.1/DTD/svg11.dtd"><svg xmlns="http://www.w3.org/2000/svg"><symbol id="arrow-white" viewBox="0 0 24 25"><path d="M12 7.17v12.5M17 10.67l-5-5M7 10.67l5-5" stroke="#fff" stroke-width="1.5" stroke-linecap="round" stroke-linejoin="round"/></symbol><symbol id="arrow" viewBox="0 0 24 24"><path d="M17.5 12H5M14 17l5-5M14 7l5 5" stroke="#F93" stroke-width="1.5" stroke-linecap="round" stroke-linejoin="round"/></symbol><symbol id="calendar" viewBox="0 0 20 20"><path d="M13.333 1.667V5M6.667 1.667V5M2.5 7.5h15" stroke="#5D6D88" stroke-width="1.5" stroke-linecap="round" stroke-linejoin="round"/><path clip-rule="evenodd" d="M15.833 3.333H4.167C3.246 3.333 2.5 4.08 2.5 5v10.833c0 .921.746 1.667 1.667 1.667h11.666c.921 0 1.667-.746 1.667-1.667V5c0-.92-.746-1.667-1.667-1.667z" stroke="#5D6D88" stroke-width="1.5" stroke-linecap="round" stroke-linejoin="round"/><path d="M5.844 10.607a.208.208 0 1 0 .21.208.209.209 0 0 0-.21-.208M10.01 10.607a.208.208 0 1 0 .21.208.209.209 0 0 0-.21-.208M14.178 10.607a.208.208 0 1 0 .21.208.209.209 0 0 0-.21-.208M5.844 13.94a.208.208 0 1 0 .21.208.209.209 0 0 0-.21-.207M10.01 13.94a.208.208 0 1 0 .21.208.209.209 0 0 0-.21-.207" stroke="#5D6D88" stroke-width="1.5" stroke-linecap="round" stroke-linejoin="round"/></symbol><symbol id="envelope" viewBox="0 0 28 28"><path d="M3.5 6.125h21V21a.875.875 0 0 1-.875.875H4.375A.875.875 0 0 1 3.5 21V6.125z" stroke="#003E7E" stroke-linecap="round" stroke-linejoin="round"/><path d="M24.5 6.125L14 15.75 3.5 6.125" stroke="#003E7E" stroke-linecap="round" stroke-linejoin="round"/></symbol><symbol id="instagram" viewBox="0 0 24 24"><path clip-rule="evenodd" d="M7.496 3h9.009A4.495 4.495 0 0 1 21 7.496v9.009A4.495 4.495 0 0 1 16.504 21H7.496A4.495 4.495 0 0 1 3 16.504V7.496A4.495 4.495 0 0 1 7.496 3z"/><path d="M16.949 6.713a.338.338 0 1 0 .002.674.338.338 0 0 0-.002-.674M14.546 9.454a3.6 3.6 0 1 1-5.092 5.091 3.6 3.6 0 0 1 5.092-5.09"/></symbol><symbol id="msn" viewBox="0 0 24 24"><path d="M15.5 14.5h-7M8.5 10.5h7" stroke="#F47D34" stroke-width="2" stroke-linecap="round" stroke-linejoin="round"/><path clip-rule="evenodd" d="M4.151 16.396A8.95 8.95 0 0 1 3 12a9 9 0 0 1 9-9 9 9 0 0 1 9 9 9 9 0 0 1-9 9 8.95 8.95 0 0 1-4.396-1.151L3 21l1.151-4.604z" stroke="#F47D34" stroke-width="2" stroke-linecap="round" stroke-linejoin="round"/></symbol><symbol id="search" viewBox="0 0 19 20"><path d="M18.633 18.145l-4.498-4.498a7.916 7.916 0 1 0-1.016 1.016l4.497 4.499a.719.719 0 1 0 1.017-1.017zM1.593 8.59a6.469 6.469 0 1 1 6.47 6.469 6.476 6.476 0 0 1-6.47-6.47z"/></symbol><symbol id="tiktok" viewBox="0 0 21 21"><path d="M20.385 8.407a3.654 3.654 0 0 1-2.61-1.107 3.827 3.827 0 0 1-1.083-2.67.637.637 0 0 0-.18-.446.609.609 0 0 0-.435-.184H13a.608.608 0 0 0-.435.184.637.637 0 0 0-.18.446v10.389c0 .281-.075.558-.215.8s-.34.442-.582.578a1.51 1.51 0 0 1-1.564-.05 1.56 1.56 0 0 1-.547-.612 1.605 1.605 0 0 1 .095-1.599c.154-.233.366-.42.615-.54a.62.62 0 0 0 .256-.233.64.64 0 0 0 .096-.336v-3.36a.643.643 0 0 0-.22-.483.61.61 0 0 0-.504-.138C7.07 9.547 5 12.114 5 15.02c0 1.586.616 3.107 1.712 4.23A5.78 5.78 0 0 0 10.846 21a5.78 5.78 0 0 0 4.134-1.752 6.052 6.052 0 0 0 1.712-4.23v-3.125a7.797 7.797 0 0 0 3.693.922c.163 0 .32-.066.435-.185a.637.637 0 0 0 .18-.445V9.037a.637.637 0 0 0-.18-.445.609.609 0 0 0-.435-.185zm-.616 3.12a6.615 6.615 0 0 1-3.333-1.27.607.607 0 0 0-.885.183.64.64 0 0 0-.09.329v4.25a4.778 4.778 0 0 1-1.351 3.339 4.563 4.563 0 0 1-3.264 1.383 4.563 4.563 0 0 1-3.263-1.383 4.778 4.778 0 0 1-1.352-3.34c0-2.038 1.28-3.866 3.077-4.533v2.178c-.398.272-.72.645-.935 1.082a2.888 2.888 0 0 0 .134 2.79c.256.413.612.752 1.034.983a2.72 2.72 0 0 0 2.729-.07c.41-.25.75-.607.986-1.033.236-.426.36-.907.36-1.396v-9.76H15.5a5.094 5.094 0 0 0 1.405 2.93 4.891 4.891 0 0 0 2.864 1.438v1.9z"/></symbol><symbol id="twitter" viewBox="0 0 24 24"><path d="M19.95 9.35a.75.75 0 0 0-1.5 0h1.5zM3.606 16.108a.75.75 0 1 0-1.212.884l1.212-.884zm-.733-.297a.75.75 0 1 0 .254 1.478l-.254-1.478zm2.827-.16l.238.71a.75.75 0 0 0 .295-1.238l-.533.527zm-.9-10.8l.66-.356a.75.75 0 0 0-1.27-.082l.61.437zm5.4 4.5l-.177.728a.75.75 0 0 0 .927-.704l-.75-.025zm8.1-2.7l-.626.412a.75.75 0 0 0 .626.337v-.75zm2.7 0l.624.415A.75.75 0 0 0 21 5.9v.75zm-2.424 2.283a.75.75 0 1 0 1.248.832l-1.248-.832zm-.126.416c0 3.012-.86 5.521-2.4 7.266C14.52 18.35 12.26 19.4 9.3 19.4v1.5c3.34 0 6.03-1.2 7.875-3.291 1.835-2.08 2.775-4.97 2.775-8.259h-1.5zM9.3 19.4c-1.655 0-2.763-.427-3.595-1.017-.856-.605-1.467-1.41-2.1-2.275l-1.21.884c.624.856 1.363 1.851 2.443 2.616 1.103.78 2.517 1.292 4.462 1.292v-1.5zm-6.173-2.11c.024-.005.043-.01.049-.01a.578.578 0 0 0 .057-.017l.033-.01.093-.03.312-.104a587.641 587.641 0 0 0 2.237-.748l.023-.007.005-.002h.002L5.7 15.65l-.238-.711H5.46l-.006.002-.022.008-.085.028-.303.102a1340.708 1340.708 0 0 1-2.154.719l-.085.027-.018.006.005-.001.015-.005a.7.7 0 0 1 .018-.004l.048-.01.254 1.478zm3.106-2.167C3.49 12.349 3.284 8.256 5.41 5.287l-1.22-.873c-2.542 3.55-2.291 8.46.977 11.764l1.066-1.055zM4.14 5.205c1.18 2.195 3.4 4.27 5.884 4.874l.354-1.458C8.41 8.143 6.495 6.418 5.461 4.495l-1.322.71zm6.81 4.17c.038-1.136.439-2.075 1.075-2.725.632-.646 1.538-1.05 2.676-1.05V4.1c-1.513 0-2.814.547-3.748 1.5-.93.95-1.453 2.261-1.502 3.725l1.5.05zM14.7 5.6c.806 0 1.396.153 1.849.395.451.24.813.594 1.125 1.068l1.252-.826c-.42-.638-.957-1.184-1.67-1.566-.713-.38-1.557-.57-2.556-.57v1.5zm3.6 1.8H21V5.9h-2.7v1.5zm2.076-1.166l-1.8 2.7 1.248.832 1.8-2.7-1.248-.832z"/></symbol><symbol id="user" viewBox="0 0 24 24"><path d="M12 2.25A9.75 9.75 0 1 0 21.75 12 9.76 9.76 0 0 0 12 2.25zM6.945 18.516a6 6 0 0 1 10.11 0 8.234 8.234 0 0 1-10.11 0zM9 11.25a3 3 0 1 1 6 0 3 3 0 0 1-6 0zm9.165 6.226a7.469 7.469 0 0 0-3.38-2.695 4.5 4.5 0 1 0-5.57 0 7.469 7.469 0 0 0-3.38 2.695 8.25 8.25 0 1 1 12.33 0z"/></symbol><symbol id="youtube" viewBox="0 0 24 24"><path clip-rule="evenodd" d="M10.002 15l5.196-3-5.196-3v6z"/><path clip-rule="evenodd" d="M7.5 3h9.004A4.496 4.496 0 0 1 21 7.496v9.009A4.496 4.496 0 0 1 16.504 21H7.496A4.496 4.496 0 0 1 3 16.504V7.5A4.5 4.5 0 0 1 7.5 3z"/></symbol></svg>