<svg width="213" height="48" viewBox="0 0 213 48" fill="none" xmlns="http://www.w3.org/2000/svg"><g clip-path="url(#a)"><path fill-rule="evenodd" clip-rule="evenodd" d="M32.965 30.752c-.058.174-.101.38-.152.553a12.71 12.71 0 0 1-1.594 3.393c-.281.422-.586.848-.926 1.212-.055.062-.11.132-.164.193l-.52.55c-.105.105-.422.41-.555.515-.195.155-.379.322-.578.477a12.662 12.662 0 0 1-3.704 1.998c-1.774.612-3.173.67-5.052.666-1.68 0-3.384-.368-4.76-.953-1.124-.476-2.222-1.103-3.137-1.866a13.89 13.89 0 0 1-.754-.659c-.27-.278-.637-.62-.867-.917-.156-.202-.328-.38-.48-.589-.302-.422-.59-.813-.853-1.27a12.485 12.485 0 0 1-1.52-4.163 12.376 12.376 0 0 1 1.985-9.038c.418-.604.805-1.054 1.274-1.58.059-.066.117-.113.18-.178l.543-.527a12.867 12.867 0 0 1 1.614-1.228c.277-.174.59-.371.898-.53.641-.325 1.255-.604 1.997-.852a12.44 12.44 0 0 1 2.337-.527c.922-.116 1.813-.1 2.75-.1H38.1c-.04-.07-.082-.117-.13-.175a12.547 12.547 0 0 0-.648-.793l-1.114-1.209-1.828-1.65c-1.137-.944-2.528-1.835-3.845-2.513a22.716 22.716 0 0 0-3.262-1.37c-.489-.16-2.274-.701-2.79-.701h-1.149c-1.371 0-3.266-.04-4.583.07-1.36.112-2.684.356-3.923.712-1.188.34-2.255.774-3.352 1.282-.27.124-.508.263-.766.395-.63.321-1.563.902-2.145 1.336-.57.426-1.184.863-1.7 1.351-.027.027-.05.043-.082.066l-1.305 1.282c-.168.15-.508.565-.688.77-.043.047-.086.105-.129.155a21.349 21.349 0 0 0-1.234 1.646c-.477.7-.883 1.41-1.278 2.184-2.297 4.511-2.876 10.107-1.13 15.308.196.577.407 1.13.645 1.673A20.098 20.098 0 0 0 3.29 38.16a21.539 21.539 0 0 0 2.586 3.195c.16.158.704.689.887.836.036.027.043.042.075.073.027.028.05.043.082.066l.785.659c.414.333.864.654 1.336.972 3.775 2.544 9.132 4.166 14.801 3.175 1.973-.345 3.56-.871 5.31-1.665.777-.352 1.512-.794 2.239-1.231.48-.291.926-.612 1.371-.95.215-.162.434-.328.641-.503l.317-.263c.218-.17.414-.368.617-.542.058-.05.094-.097.148-.147.454-.407.848-.845 1.278-1.31.09-.1.176-.204.27-.309.59-.65 1.223-1.588 1.715-2.327.305-.457.574-.965.848-1.472 1.133-2.107 1.883-4.662 2.149-7.083.039-.356.066-.708.086-1.068.02-.314.054-.814.027-1.116-.07.039-.223.186-.297.256-.035.035-.062.046-.097.081-.38.345-.782.631-1.212.93-1.735 1.212-4.13 2.145-6.287 2.346" fill="#F49739"/><path fill-rule="evenodd" clip-rule="evenodd" d="M24.987 20.04h-5.9v16.702l.848.043c1.219.027 2.391-.1 3.497-.469 1.29-.43 2.137-1.06 2.23-1.096v-8.465c.11-.027 6.811-.011 7.542-.008.305 0 1.336-.333 1.617-.437.696-.252 1.223-.534 1.84-.902.317-.19.919-.624 1.188-.868l.27-.236a10.165 10.165 0 0 0 1.91-2.37c.165-.275.825-1.568.83-1.913-5.303 0-10.57.015-15.872.015M40.858 14.902V6.924h-8.951l.676.38c.691.387 1.293.79 1.942 1.228.398.27 1.12.813 1.5 1.134.098.081.2.155.293.244l.352.302c.027.023.046.035.074.062.062.058.094.078.14.124l.817.759c.047.046.082.1.129.14.164.143.739.743.907.937l.25.282c.132.17.343.387.488.57.328.422.59.716.922 1.188l.43.6c.027.028-.008 0 .031.028z" fill="#F49739"/><path d="M93.282 46.42V26.802c0-.446.363-.806.812-.806h1.263c.449 0 .812.36.812.806v19.617a.808.808 0 0 1-.813.806h-1.262a.808.808 0 0 1-.812-.806zM47.551 31.216c0-1.336.246-2.428.739-3.28.492-.848 1.133-1.475 1.926-1.878a5.52 5.52 0 0 1 2.536-.604c.793 0 1.567.124 2.328.364.598.194 1.161.492 1.685.899.242.19.27.55.082.79l-.762.972c-.192.244-.536.278-.797.104-.66-.433-1.356-.65-2.087-.65-.836 0-1.504.267-2.008.793-.504.531-.754 1.445-.754 2.738v.419s-.024.538.555.538h3.141c.317 0 .574.255.574.569v1.247c0 .314-.258.57-.574.57h-3.122a.573.573 0 0 0-.574.569v11.272c0 .314-.258.57-.575.57h-1.738a.573.573 0 0 1-.575-.57v-15.44.008zM66.064 41.908V40.87c0-.38-.29-.697-.672-.74-.48-.05-1.086-.1-1.368-.12-.48-.03-.945-.046-1.395-.046-1.07 0-1.89.155-2.457.461-.567.31-.954.69-1.157 1.146a3.303 3.303 0 0 0-.305 1.352c0 .786.278 1.39.837 1.816.554.426 1.328.635 2.313.635.75 0 1.438-.166 2.07-.492a4.479 4.479 0 0 0 1.544-1.29c.394-.53.594-1.091.594-1.688m.758 5.317a.682.682 0 0 1-.684-.654l-.039-1.127c-.535.72-1.27 1.27-2.2 1.638a7.52 7.52 0 0 1-2.81.558 7.027 7.027 0 0 1-2.426-.446 4.412 4.412 0 0 1-1.988-1.463c-.524-.678-.786-1.58-.786-2.707 0-1.592.567-2.866 1.704-3.819 1.133-.956 2.75-1.432 4.849-1.432.469 0 .957.015 1.461.046.504.031.957.062 1.364.097.93.077.797-.775.781-.922-.082-.867-.414-1.502-.988-1.913-.676-.476-1.59-.716-2.747-.716-1.157 0-2.008.155-2.68.46a11.43 11.43 0 0 0-1.165.605.68.68 0 0 1-.899-.206l-.586-.844a.676.676 0 0 1 .2-.964c.449-.283.992-.557 1.629-.832.942-.403 2.215-.605 3.821-.605 1.907 0 3.415.461 4.529 1.387 1.113.921 1.668 2.234 1.668 3.93l.031 9.252a.682.682 0 0 1-.683.681h-1.348l-.008-.004zM125.544 41.908V40.87a.748.748 0 0 0-.672-.74c-.481-.05-1.086-.1-1.368-.12-.48-.03-.949-.046-1.398-.046-1.071 0-1.892.155-2.458.461-.567.31-.953.69-1.157 1.146a3.305 3.305 0 0 0-.304 1.352c0 .786.277 1.39.836 1.816.555.426 1.328.635 2.313.635a4.46 4.46 0 0 0 2.071-.492 4.422 4.422 0 0 0 1.539-1.29c.395-.53.594-1.091.594-1.688m.758 5.317a.683.683 0 0 1-.684-.654l-.039-1.127c-.535.72-1.27 1.27-2.2 1.638a7.514 7.514 0 0 1-2.809.558 7.024 7.024 0 0 1-2.426-.446 4.415 4.415 0 0 1-1.989-1.463c-.524-.678-.785-1.58-.785-2.707 0-1.592.566-2.866 1.703-3.819 1.133-.956 2.751-1.432 4.849-1.432.469 0 .957.015 1.461.046.504.031.958.062 1.364.097.93.077.797-.775.781-.922-.082-.867-.414-1.502-.988-1.913-.676-.476-1.59-.716-2.747-.716-1.156 0-2.008.155-2.68.46-.434.198-.825.4-1.165.605a.68.68 0 0 1-.898-.206l-.586-.844a.676.676 0 0 1 .199-.964c.449-.283.996-.557 1.629-.832.942-.403 2.216-.605 3.822-.605 1.906 0 3.414.461 4.528 1.387 1.114.921 1.668 2.234 1.668 3.93l.032 9.252a.682.682 0 0 1-.684.681h-1.348l-.008-.004zM157.24 41.908V40.87a.75.75 0 0 0-.673-.74c-.48-.05-1.086-.1-1.367-.12a21.9 21.9 0 0 0-1.399-.046c-1.07 0-1.891.155-2.458.461-.566.31-.953.69-1.156 1.146a3.307 3.307 0 0 0-.305 1.352c0 .786.278 1.39.836 1.816.555.426 1.329.635 2.313.635.751 0 1.438-.166 2.071-.492a4.485 4.485 0 0 0 1.544-1.29c.394-.53.594-1.091.594-1.688m.758 5.317a.682.682 0 0 1-.684-.654l-.039-1.127c-.536.72-1.27 1.27-2.2 1.638a7.521 7.521 0 0 1-2.809.558 7.03 7.03 0 0 1-2.427-.446 4.415 4.415 0 0 1-1.989-1.463c-.523-.678-.785-1.58-.785-2.707 0-1.592.567-2.866 1.704-3.819 1.133-.956 2.75-1.432 4.849-1.432.468 0 .957.015 1.461.046.504.031.957.062 1.363.097.93.077.798-.775.782-.922-.082-.867-.414-1.502-.989-1.913-.676-.476-1.59-.716-2.746-.716-1.157 0-2.009.155-2.681.46-.433.198-.824.4-1.164.605a.681.681 0 0 1-.899-.206l-.586-.844a.676.676 0 0 1 .199-.964c.45-.283.993-.557 1.63-.832.941-.403 2.215-.605 3.821-.605 1.907 0 3.415.461 4.528 1.387 1.114.921 1.669 2.234 1.669 3.93l.031 9.252a.682.682 0 0 1-.684.681h-1.348l-.007-.004zM83.725 43.926l.683.712c.313.326.27.837-.07 1.139a7.791 7.791 0 0 1-1.88 1.208c-.984.457-2.11.685-3.371.685-1.606 0-2.993-.34-4.162-1.018a7.068 7.068 0 0 1-2.711-2.784c-.645-1.178-.965-2.533-.965-4.059 0-1.444.332-2.757.996-3.946a7.598 7.598 0 0 1 2.778-2.85c1.188-.712 2.544-1.065 4.064-1.065 1.262 0 2.375.225 3.34.67.692.322 1.31.72 1.856 1.204.348.306.38.837.043 1.158l-.758.725a.78.78 0 0 1-1.062.015 4.94 4.94 0 0 0-1.141-.778c-.641-.318-1.403-.477-2.282-.477-1.028 0-1.91.252-2.65.748a4.845 4.845 0 0 0-1.687 1.96c-.387.805-.578 1.688-.578 2.64 0 .953.199 1.778.593 2.595.395.817.958 1.479 1.684 1.99.727.508 1.606.763 2.634.763.879 0 1.664-.163 2.36-.492a5.07 5.07 0 0 0 1.2-.782.776.776 0 0 1 1.074.047M87.116 46.362v-13.07c0-.476.39-.864.871-.864h1.145c.48 0 .871.388.871.864v13.07c0 .476-.39.863-.87.863h-1.146a.868.868 0 0 1-.87-.863zM99.53 46.362v-13.07c0-.476.39-.864.871-.864h1.145c.48 0 .871.388.871.864v13.07a.868.868 0 0 1-.871.863h-1.145a.868.868 0 0 1-.871-.863zM106.445 27.588h1.551c.372 0 .672.298.672.662v3.508c0 .368.301.663.673.663h3.028a.67.67 0 0 1 .672.666v1.057a.666.666 0 0 1-.672.662h-3.028a.669.669 0 0 0-.673.662v6.626c0 1.189.188 2.006.563 2.451.375.446.903.67 1.59.67.555 0 1.024-.085 1.399-.255a3.27 3.27 0 0 0 .547-.318c.563-.407.86-.012.914.062l.567.755a.655.655 0 0 1-.09.895 5.808 5.808 0 0 1-1.453.883c-.653.267-1.43.398-2.329.398-1.563 0-2.72-.43-3.47-1.29-.75-.859-1.125-2.18-1.125-3.96V28.245c0-.368.301-.662.672-.662M142.001 40.986v-4.902a.715.715 0 0 0-.304-.604 5.312 5.312 0 0 0-1.173-.57c-.597-.212-1.328-.317-2.184-.317-1.391 0-2.555.488-3.485 1.464-.93.976-1.399 2.312-1.399 4.012 0 .933.156 1.793.465 2.579.309.786.786 1.405 1.43 1.862.641.457 1.458.686 2.442.686.985 0 1.813-.229 2.423-.686a4.18 4.18 0 0 0 1.348-1.669c.289-.658.433-1.274.433-1.847m.809 6.239a.745.745 0 0 1-.746-.705l-.059-1.173c-.148.17-.422.445-.82.828-.395.384-.926.728-1.59 1.034-.665.306-1.477.461-2.442.461-1.262 0-2.4-.314-3.404-.941-1.008-.627-1.797-1.51-2.375-2.657-.579-1.146-.868-2.493-.868-4.042 0-1.402.243-2.606.723-3.613.481-1.007 1.11-1.832 1.88-2.467a8.087 8.087 0 0 1 2.488-1.417c.887-.306 1.727-.461 2.521-.461.793 0 1.516.085 2.102.255.59.17 1.184.403 1.781.701v-6.293c0-.41.336-.743.751-.743h1.395c.414 0 .746.333.746.744l-.028 19.737a.755.755 0 0 1-.758.752h-1.297zM51.154 9.074c.887-.573 1.899-.86 3.036-.86 1.07 0 1.973.186 2.711.558.555.278 1.04.63 1.454 1.06.441.477.762.171.762.171l.387-.29s.332-.306-.067-.717a7.343 7.343 0 0 0-1.926-1.433c-.91-.456-2.02-.685-3.325-.685-1.391 0-2.65.34-3.775 1.019a7.39 7.39 0 0 0-2.664 2.753c-.653 1.158-.981 2.467-.981 3.93 0 .632.074 1.232.195 1.809a7.58 7.58 0 0 0 .766 2.102c.254.465.559.884.89 1.267.087.1.892.945 1.79 1.506 1.114.693 2.384 1.019 3.775 1.019 1.305 0 2.414-.229 3.325-.686a7.342 7.342 0 0 0 1.926-1.433c.399-.406.067-.716.067-.716l-.387-.29s-.325-.306-.762.17a5.389 5.389 0 0 1-1.454 1.061c-.738.372-1.645.558-2.711.558-1.137 0-2.145-.287-3.036-.86-1.102-.712-1.766-1.766-2.071-2.339-.516-.964-.77-2.021-.77-3.168 0-1.146.25-2.234.754-3.198a6.01 6.01 0 0 1 2.087-2.308M73.812 17.794a6.182 6.182 0 0 1-2.184 2.324c-.922.573-1.958.86-3.114.86a5.496 5.496 0 0 1-3.067-.891 6.583 6.583 0 0 1-2.216-2.339 6.313 6.313 0 0 1-.82-3.168c0-1.146.265-2.265.8-3.23a6.225 6.225 0 0 1 2.185-2.307c.918-.573 1.957-.86 3.114-.86 1.156 0 2.16.298 3.083.89a6.641 6.641 0 0 1 2.2 2.34c.546.964.816 2.021.816 3.167a6.629 6.629 0 0 1-.801 3.214m-1.461-9.882c-1.145-.69-2.427-1.034-3.837-1.034-1.41 0-2.665.345-3.822 1.034a7.767 7.767 0 0 0-2.762 2.784c-.684 1.17-1.028 2.463-1.028 3.884 0 1.422.344 2.715 1.028 3.884a7.767 7.767 0 0 0 2.763 2.785c1.156.689 2.43 1.034 3.82 1.034 1.392 0 2.693-.345 3.838-1.034a7.85 7.85 0 0 0 2.747-2.785c.683-1.165 1.027-2.462 1.027-3.884 0-1.42-.344-2.714-1.027-3.884a7.819 7.819 0 0 0-2.747-2.784zM102.39 20.478l-.235-.232c-.187-.186-.508-.167-.719.038 0 0-.598.705-1.883.694-.512 0-.97-.086-1.364-.256-.394-.17-.71-.535-.95-1.1-.234-.561-.35-1.417-.35-2.564V8.593h4.34c.297 0 .535-.22.535-.495v-.345c0-.275-.238-.496-.535-.496h-4.34V2.951a.531.531 0 0 0-.536-.53h-.371a.531.531 0 0 0-.536.53v14.46c0 1.293.165 2.292.497 2.993.332.701.797 1.19 1.398 1.464.598.275 1.286.415 2.056.415 1.922.034 2.957-1.096 2.957-1.096.211-.21.227-.527.04-.713M115.014 16.49c0 .743-.242 1.46-.723 2.149-.481.689-1.117 1.25-1.911 1.688-.793.434-1.68.65-2.664.65-1.114 0-2.028-.243-2.747-.731-.719-.488-1.075-1.263-1.075-2.324 0-.36.047-.763.145-1.208a3.01 3.01 0 0 1 .641-1.274c.332-.403.82-.736 1.461-1.003.645-.263 1.508-.399 2.602-.399 1.094 0 1.911.039 2.587.112.676.074 1.235.163 1.684.272v2.067zm-4.56-9.612c-1.121 0-2.09.167-2.919.48l-.007-.008-.168.078c-.075.03-.157.054-.231.089-.148.07-.277.136-.414.205l-.086.039-.055.03a10.39 10.39 0 0 0-.57.318l-.399.221a.538.538 0 0 0-.16.732l.129.217c.148.232.473.29.723.132l.363-.206c.27-.162.571-.325.918-.495.715-.349 1.684-.527 2.907-.527 1.458 0 2.571.287 3.341.86s1.157 1.665 1.157 3.28v.828a23.988 23.988 0 0 0-1.798-.224 27.723 27.723 0 0 0-2.407-.097c-1.543 0-2.782.229-3.723.685-.942.457-1.63 1.065-2.055 1.832-.43.763-.641 1.623-.641 2.58 0 1.145.262 2.036.785 2.671a4.05 4.05 0 0 0 1.993 1.32c.801.245 1.61.369 2.426.369.555 0 1.168-.082 1.833-.24a6.303 6.303 0 0 0 1.957-.86c.637-.41 1.212-.984 1.719-1.716v1.898c0 .294.227.53.504.53h.352a.515.515 0 0 0 .504-.53v-9.27c0-1.867-.519-3.203-1.559-4.013-1.039-.805-2.508-1.208-4.415-1.208h-.004zM177.995 16.49c0 .743-.242 1.46-.723 2.149-.481.689-1.117 1.25-1.911 1.688-.793.434-1.68.65-2.664.65-1.114 0-2.028-.243-2.747-.731-.719-.488-1.075-1.263-1.075-2.324 0-.36.047-.763.145-1.208a3.01 3.01 0 0 1 .641-1.274c.332-.403.82-.736 1.461-1.003.641-.263 1.508-.399 2.602-.399 1.094 0 1.911.039 2.587.112.676.074 1.235.163 1.684.272v2.067zm-4.56-9.612c-1.121 0-2.09.167-2.919.48l-.007-.008-.168.078c-.075.03-.157.054-.231.089-.148.07-.277.136-.41.205l-.086.039-.055.03a10.39 10.39 0 0 0-.57.318l-.399.221a.537.537 0 0 0-.16.732l.129.217c.148.232.473.29.723.132l.363-.206c.27-.162.571-.325.918-.495.719-.349 1.684-.527 2.907-.527 1.458 0 2.571.287 3.341.86s1.157 1.665 1.157 3.28v.828a23.788 23.788 0 0 0-1.798-.224 27.723 27.723 0 0 0-2.407-.097c-1.543 0-2.782.229-3.723.685-.942.457-1.63 1.065-2.055 1.832-.43.763-.641 1.623-.641 2.58 0 1.145.262 2.036.785 2.671a4.05 4.05 0 0 0 1.993 1.32c.805.245 1.61.369 2.426.369.555 0 1.168-.082 1.833-.24a6.303 6.303 0 0 0 1.957-.86c.637-.41 1.211-.984 1.719-1.716v1.898c0 .294.227.53.504.53h.352a.515.515 0 0 0 .504-.53v-9.27c0-1.867-.519-3.203-1.559-4.013-1.039-.805-2.512-1.208-4.415-1.208h-.008zM130.834 18.096a5.486 5.486 0 0 1-2.36 2.134c-.996.476-2.125.717-3.387.717-.379 0-.727-.008-1.047-.027a16.18 16.18 0 0 1-2.501-.434.537.537 0 0 1-.402-.523V14.1c0-.616.105-1.262.32-1.94a6.42 6.42 0 0 1 .981-1.91 5.156 5.156 0 0 1 1.652-1.447c.665-.372 1.446-.558 2.345-.558 1.285 0 2.313.287 3.083.86.769.573 1.328 1.343 1.668 2.308.344.964.512 2.021.512 3.167 0 1.402-.289 2.572-.868 3.516m-.48-10.2c-.985-.677-2.239-1.018-3.759-1.018-1.07 0-1.957.163-2.665.492-.707.329-1.273.72-1.703 1.177a9.78 9.78 0 0 0-1.059 1.32V1.201a.531.531 0 0 0-.535-.53h-.372a.532.532 0 0 0-.535.53v19.58c0 .367.235.688.586.805.481.158 1.059.302 1.723.426.965.181 1.97.27 3.021.27 1.543 0 2.926-.298 4.157-.89a7.016 7.016 0 0 0 2.938-2.61c.727-1.146 1.09-2.537 1.09-4.17 0-1.464-.234-2.781-.707-3.947-.469-1.165-1.199-2.09-2.184-2.769h.004zM211.234 13.72h-10.772a6.322 6.322 0 0 1 .801-2.768 5.506 5.506 0 0 1 1.91-1.99c.805-.5 1.731-.748 2.778-.748 1.52 0 2.767.472 3.743 1.417.934.906 1.509 2.2 1.724 3.877a.192.192 0 0 1-.188.213m.871-3.199c-.609-1.2-1.449-2.107-2.52-2.722-1.07-.616-2.278-.922-3.63-.922-1.352 0-2.629.345-3.708 1.034a7.056 7.056 0 0 0-2.52 2.784c-.602 1.17-.899 2.463-.899 3.884 0 1.507.321 2.843.966 4.012a6.83 6.83 0 0 0 2.68 2.723c1.145.646 2.446.972 3.903.972a8.576 8.576 0 0 0 3.388-.701c.906-.384 1.657-.875 2.254-1.476.391-.372.032-.681.032-.681l-.333-.28s-.339-.278-.726.105c-.461.45-1.063.825-1.805 1.12-.954.383-1.892.573-2.81.573-1.156 0-2.172-.271-3.051-.813a5.821 5.821 0 0 1-2.071-2.165c-.504-.902-.778-1.905-.817-3.01h11.867c.394 0 .726-.328.707-.72-.074-1.448-.371-2.687-.899-3.72l-.008.003zM86.19 6.797c-1.114 0-2.055.197-2.825.588-.77.392-1.39.856-1.864 1.387-.472.53-.824 1.018-1.059 1.464l-.003-2.53a.531.531 0 0 0-.536-.53h-.254a.531.531 0 0 0-.535.53v13.585c0 .295.238.53.535.53h.325a.531.531 0 0 0 .535-.53v-7.013c0-.933.2-1.874.594-2.819.394-.945 1-1.735 1.813-2.37s1.84-.956 3.083-.956c.941 0 1.738.159 2.39.476.653.318 1.154.88 1.493 1.688.344.806.516 1.94.516 3.408v7.586c0 .295.239.53.535.53h.372a.531.531 0 0 0 .535-.53V13.23c0-1.975-.418-3.54-1.25-4.693-.837-1.154-2.302-1.735-4.4-1.735M162.659 17.667a5.393 5.393 0 0 1-.981 1.545c-.437.5-.992.914-1.653 1.243-.664.329-1.445.492-2.344.492-1.262 0-2.286-.29-3.067-.875a4.877 4.877 0 0 1-1.688-2.293 8.822 8.822 0 0 1-.512-3.04c0-1.549.289-2.8.867-3.756.579-.957 1.333-1.654 2.263-2.099a6.655 6.655 0 0 1 2.907-.67c.75 0 1.414.085 1.993.256.578.17 1.047.36 1.414.573.215.108.418.228.609.368.192.14.364.282.516.43v6.397c0 .426-.109.902-.32 1.433m1.735-16.203v-.263a.527.527 0 0 0-.524-.53h-.363a.527.527 0 0 0-.524.53V8.28a10.675 10.675 0 0 0-1.348-.701c-.43-.17-.906-.33-1.43-.476a6.344 6.344 0 0 0-1.719-.225c-1.477 0-2.79.325-3.935.972a6.98 6.98 0 0 0-2.696 2.722c-.652 1.166-.98 2.549-.98 4.14 0 1.402.242 2.672.722 3.818.481 1.146 1.216 2.06 2.2 2.738.985.678 2.227 1.019 3.728 1.019.965 0 1.785-.155 2.473-.461.684-.306 1.254-.643 1.704-1.003a5.22 5.22 0 0 0 .738-.686c.215-.244.395-.503.547-.778v2.006c0 .294.234.53.524.53h.363a.527.527 0 0 0 .524-.53V1.464l-.004.004zM194.144 17.667a5.414 5.414 0 0 1-.981 1.545c-.438.5-.993.914-1.653 1.243-.664.329-1.446.492-2.344.492-1.262 0-2.286-.29-3.067-.875a4.877 4.877 0 0 1-1.688-2.293 8.823 8.823 0 0 1-.516-3.04c0-1.549.289-2.8.867-3.756.579-.957 1.333-1.654 2.263-2.099a6.655 6.655 0 0 1 2.907-.67c.75 0 1.414.085 1.992.256.579.17 1.047.36 1.415.573.215.108.418.228.609.368.192.14.364.282.516.43v6.397c0 .426-.109.902-.32 1.433m1.734-16.203v-.263a.526.526 0 0 0-.523-.53h-.363a.526.526 0 0 0-.524.53V8.28a10.675 10.675 0 0 0-1.348-.701c-.43-.17-.907-.33-1.43-.476a6.344 6.344 0 0 0-1.719-.225c-1.477 0-2.79.325-3.935.972a6.98 6.98 0 0 0-2.696 2.722c-.652 1.166-.981 2.549-.981 4.14 0 1.402.243 2.672.723 3.818.481 1.146 1.215 2.06 2.2 2.738.985.678 2.227 1.019 3.728 1.019.965 0 1.785-.155 2.473-.461.684-.306 1.254-.643 1.703-1.003.278-.213.524-.442.739-.686.215-.244.394-.503.547-.778v2.006c0 .294.234.53.523.53h.364a.526.526 0 0 0 .523-.53V1.464l-.004.004zM136.683 5.329h.473a.453.453 0 0 0 .457-.453v-.469a.453.453 0 0 0-.457-.453h-.473a.454.454 0 0 0-.457.453v.469c0 .252.204.453.457.453zM147.432 3.958h-.472a.456.456 0 0 0-.458.453v.469c0 .252.204.453.458.453h.472a.454.454 0 0 0 .458-.453V4.41a.454.454 0 0 0-.458-.453zM137.172 7.257h-.508a.468.468 0 0 0-.469.465v13.712c0 .256.211.465.469.465h.508c.258 0 .469-.209.469-.465V7.722a.468.468 0 0 0-.469-.465zM142.31.67h-.508a.468.468 0 0 0-.469.465v20.3c0 .255.211.464.469.464h.508c.258 0 .469-.209.469-.465V1.136a.468.468 0 0 0-.469-.465zM147.421 7.257h-.508a.468.468 0 0 0-.469.465v13.712c0 .256.211.465.469.465h.508c.258 0 .469-.209.469-.465V7.722a.468.468 0 0 0-.469-.465z" fill="#fff"/></g><defs><clipPath id="a"><path fill="#fff" transform="translate(0 .67)" d="M0 0h213v47H0z"/></clipPath></defs></svg>