<svg width="181" height="40" viewBox="0 0 181 40" fill="none" xmlns="http://www.w3.org/2000/svg">
<g clip-path="url(#clip0_1_1409)">
<path fill-rule="evenodd" clip-rule="evenodd" d="M28.0129 25.6012C27.9631 25.7495 27.9266 25.9242 27.8835 26.0725C27.5846 27.0843 27.0966 28.1159 26.5288 28.9596C26.2897 29.3188 26.0308 29.6813 25.7419 29.9911C25.6954 30.0438 25.6489 30.1032 25.6024 30.1559L25.1608 30.6239C25.0712 30.7129 24.8023 30.9732 24.6894 31.0622C24.5234 31.194 24.3673 31.3358 24.198 31.4676C23.2816 32.1696 22.3121 32.7331 21.0504 33.1682C19.543 33.6889 18.3543 33.7383 16.7573 33.735C15.3296 33.735 13.882 33.4219 12.7132 32.9243C11.757 32.5189 10.824 31.985 10.0471 31.3358C9.91095 31.2237 9.52248 30.8974 9.40627 30.7755C9.17717 30.5382 8.86507 30.2482 8.66918 29.9944C8.53637 29.823 8.39027 29.6714 8.26078 29.4935C8.00513 29.1342 7.75943 28.8014 7.53697 28.4125C6.93933 27.3677 6.48445 26.2406 6.24539 24.8696C5.74072 21.9232 6.57742 19.135 7.93208 17.1774C8.28735 16.6633 8.61605 16.281 9.01448 15.8328C9.06428 15.7767 9.11409 15.7372 9.16721 15.6811L9.62873 15.2329C10.057 14.8572 10.5086 14.498 11 14.1882C11.2357 14.0399 11.5013 13.8718 11.7636 13.7367C12.3082 13.4598 12.8294 13.2225 13.4603 13.0116C14.0845 12.804 14.7519 12.6524 15.4458 12.5634C16.2294 12.4645 16.9864 12.4777 17.7833 12.4777H32.3757C32.3425 12.4184 32.306 12.3788 32.2662 12.3294C32.0935 12.0954 31.9076 11.8746 31.715 11.6538L30.7687 10.6255L29.2149 9.22156C28.2487 8.41741 27.0667 7.65939 25.9477 7.08265C25.0944 6.64432 24.1581 6.23895 23.1753 5.91597C22.7603 5.78084 21.243 5.31944 20.8047 5.31944C20.4793 5.31944 20.1539 5.31944 19.8285 5.31944C18.6631 5.31944 17.0528 5.28649 15.9339 5.37877C14.7784 5.47434 13.6529 5.68197 12.6003 5.98518C11.591 6.2752 10.6846 6.64432 9.75158 7.07605C9.52248 7.18152 9.31994 7.30016 9.10081 7.41222C8.56625 7.68576 7.77271 8.18012 7.27799 8.54924C6.79323 8.91176 6.27196 9.28418 5.83368 9.69944C5.81044 9.72251 5.79052 9.73569 5.76396 9.75547L4.65499 10.8463C4.51222 10.9749 4.22336 11.3275 4.07063 11.5022C4.03411 11.5417 3.99759 11.5912 3.96106 11.634C3.5892 12.0822 3.24057 12.5502 2.91186 13.0347C2.50679 13.6312 2.16149 14.2343 1.82614 14.8935C-0.126162 18.733 -0.617559 23.4953 0.866592 27.9214C1.0326 28.4125 1.2119 28.8838 1.41443 29.3452C1.79958 30.2284 2.27438 31.1182 2.79566 31.9059C3.44974 32.8847 4.17024 33.7911 4.99366 34.6249C5.12979 34.76 5.5913 35.2115 5.74736 35.3368C5.77724 35.3598 5.78388 35.373 5.81044 35.3994C5.83368 35.4224 5.8536 35.4356 5.88017 35.4554L6.54754 36.0157C6.89948 36.2991 7.28131 36.5726 7.68306 36.8429C10.8904 39.0082 15.4425 40.3891 20.2602 39.5454C21.9369 39.252 23.2849 38.8038 24.7724 38.1282C25.4331 37.8283 26.0573 37.4526 26.6749 37.0802C27.0833 36.833 27.4618 36.5595 27.8403 36.2727C28.0229 36.1343 28.2088 35.9926 28.3848 35.8443L28.6538 35.6202C28.8397 35.4752 29.0057 35.3071 29.1783 35.1588C29.2282 35.1159 29.258 35.0764 29.3045 35.0335C29.6897 34.6875 30.025 34.3151 30.3902 33.9196C30.4666 33.8339 30.5397 33.7449 30.6193 33.6559C31.1207 33.1023 31.6586 32.3047 32.0769 31.6752C32.3359 31.2863 32.565 30.8546 32.7974 30.4228C33.7603 28.63 34.3978 26.4548 34.6236 24.395C34.6568 24.0918 34.68 23.7919 34.6966 23.4854C34.7132 23.2184 34.7431 22.7933 34.7198 22.5362C34.6601 22.5692 34.5306 22.6944 34.4675 22.7537C34.4376 22.7834 34.4144 22.7933 34.3845 22.8229C34.0624 23.1163 33.7204 23.3601 33.3552 23.6139C31.881 24.6455 29.8457 25.4397 28.0129 25.6111" fill="#F49739"/>
<path fill-rule="evenodd" clip-rule="evenodd" d="M21.2329 16.485H16.2194V30.6994L16.9399 30.7356C17.9758 30.7587 18.9718 30.6499 19.9115 30.3368C21.0072 29.971 21.7277 29.4338 21.8073 29.4042V22.1997C21.9003 22.1767 27.5945 22.1899 28.2154 22.1931C28.4744 22.1931 29.3509 21.9097 29.59 21.8207C30.181 21.6065 30.6292 21.3659 31.1538 21.0528C31.4228 20.8913 31.9341 20.5222 32.1632 20.3146L32.3923 20.1136C32.877 19.6522 33.1559 19.349 33.5577 18.8019C33.7204 18.5811 33.8632 18.3471 34.0159 18.0966C34.1553 17.8626 34.7165 16.7618 34.7198 16.4685C30.2142 16.4685 25.7385 16.4817 21.2329 16.4817" fill="#F49739"/>
<path fill-rule="evenodd" clip-rule="evenodd" d="M34.7198 12.1117V5.32251H27.1132L27.6876 5.64549C28.2752 5.97506 28.7866 6.31781 29.3377 6.69023C29.6764 6.92093 30.2906 7.38233 30.6127 7.65587C30.6957 7.72508 30.782 7.7877 30.8617 7.8635L31.1605 8.12057C31.1838 8.14034 31.2004 8.15023 31.2236 8.1733C31.2767 8.22273 31.3033 8.23921 31.3432 8.27876L32.0371 8.92472C32.0769 8.96427 32.1068 9.01041 32.1467 9.04336C32.2861 9.16531 32.7742 9.67614 32.917 9.84093L33.1294 10.0815C33.2423 10.2265 33.4216 10.4111 33.5445 10.566C33.8234 10.9252 34.0458 11.1757 34.3281 11.5778L34.6933 12.0886C34.7165 12.1117 34.6866 12.0886 34.7198 12.1117Z" fill="#F49739"/>
<path d="M79.2676 38.9355V22.2395C79.2676 21.8605 79.5764 21.554 79.9582 21.554H81.0306C81.4125 21.554 81.7212 21.8605 81.7212 22.2395V38.9355C81.7212 39.3145 81.4125 39.621 81.0306 39.621H79.9582C79.5764 39.621 79.2676 39.3145 79.2676 38.9355Z" fill="#102850"/>
<path d="M40.4073 25.9965C40.4073 24.8595 40.6165 23.9301 41.0349 23.2051C41.4532 22.4833 41.9977 21.9494 42.6718 21.6067C43.3458 21.2639 44.0629 21.0925 44.8266 21.0925C45.5006 21.0925 46.158 21.198 46.8055 21.4023C47.3135 21.5671 47.7916 21.8209 48.2365 22.1669C48.4423 22.3284 48.4656 22.6349 48.3062 22.8393L47.6588 23.6665C47.4961 23.8741 47.2039 23.9038 46.9814 23.7555C46.4203 23.3863 45.8293 23.2018 45.2084 23.2018C44.4979 23.2018 43.9301 23.4292 43.5018 23.8774C43.0735 24.3289 42.861 25.1067 42.861 26.2075V26.5634C42.861 26.5634 42.8411 27.0215 43.3325 27.0215H46.002C46.2709 27.0215 46.49 27.239 46.49 27.506V28.5672C46.49 28.8341 46.2709 29.0517 46.002 29.0517H43.3491C43.0801 29.0517 42.861 29.2692 42.861 29.5361V39.1299C42.861 39.3969 42.6419 39.6144 42.3729 39.6144H40.8954C40.6265 39.6144 40.4073 39.3969 40.4073 39.1299V25.99V25.9965Z" fill="#102850"/>
<path d="M56.1388 35.0961V34.2128C56.1388 33.8898 55.8931 33.6196 55.5677 33.5833C55.1593 33.5405 54.6447 33.4977 54.4057 33.4812C53.9973 33.4548 53.6021 33.4416 53.2203 33.4416C52.3106 33.4416 51.6133 33.5735 51.1319 33.8338C50.6505 34.0975 50.3217 34.4205 50.1491 34.8093C49.9764 35.1982 49.8901 35.5805 49.8901 35.9595C49.8901 36.6286 50.1258 37.1427 50.6006 37.5052C51.0721 37.8678 51.7295 38.0457 52.5662 38.0457C53.2037 38.0457 53.7881 37.904 54.326 37.6272C54.8638 37.347 55.2988 36.9812 55.6375 36.5297C55.9728 36.0782 56.1421 35.6003 56.1421 35.0928M56.7863 39.6178C56.4742 39.6178 56.2152 39.3706 56.2052 39.0608L56.172 38.1018C55.7171 38.7148 55.0929 39.1827 54.3027 39.4958C53.5125 39.8122 52.7156 39.9704 51.9155 39.9704C51.2249 39.9704 50.5376 39.8419 49.8536 39.5914C49.1729 39.3376 48.6085 38.9224 48.1636 38.3456C47.7187 37.7689 47.4962 37.001 47.4962 36.0419C47.4962 34.6874 47.9777 33.6031 48.9438 32.7924C49.9067 31.9783 51.2813 31.573 53.0643 31.573C53.4627 31.573 53.8777 31.5861 54.306 31.6125C54.7344 31.6389 55.1195 31.6652 55.4648 31.6949C56.255 31.7608 56.1421 31.0358 56.1289 30.9105C56.0591 30.1723 55.7769 29.6318 55.2888 29.2824C54.7144 28.8771 53.9375 28.6727 52.9547 28.6727C51.9719 28.6727 51.2481 28.8046 50.677 29.0649C50.3085 29.233 49.9764 29.4044 49.6876 29.5791C49.4286 29.734 49.0966 29.6483 48.9239 29.4044L48.4259 28.6859C48.2366 28.4124 48.313 28.04 48.5952 27.8653C48.977 27.6247 49.4386 27.3907 49.9798 27.1567C50.7799 26.814 51.8623 26.6426 53.227 26.6426C54.8472 26.6426 56.1289 27.0348 57.0751 27.8224C58.0214 28.6068 58.4929 29.7241 58.4929 31.1676L58.5194 39.041C58.5194 39.3607 58.2605 39.6211 57.9384 39.6211H56.7929L56.7863 39.6178Z" fill="#102850"/>
<path d="M106.683 35.0961V34.2128C106.683 33.8898 106.437 33.6196 106.112 33.5833C105.703 33.5405 105.189 33.4977 104.95 33.4812C104.541 33.4548 104.143 33.4416 103.761 33.4416C102.851 33.4416 102.154 33.5735 101.673 33.8338C101.191 34.0975 100.863 34.4205 100.69 34.8093C100.517 35.1982 100.431 35.5805 100.431 35.9595C100.431 36.6286 100.667 37.1427 101.141 37.5052C101.613 37.8678 102.27 38.0457 103.107 38.0457C103.745 38.0457 104.329 37.904 104.867 37.6272C105.405 37.347 105.84 36.9812 106.175 36.5297C106.51 36.0782 106.68 35.6003 106.68 35.0928M107.324 39.6178C107.012 39.6178 106.753 39.3706 106.743 39.0608L106.71 38.1018C106.255 38.7148 105.63 39.1827 104.84 39.4958C104.05 39.8122 103.253 39.9704 102.453 39.9704C101.762 39.9704 101.075 39.8419 100.391 39.5914C99.7104 39.3376 99.146 38.9224 98.7011 38.3456C98.2561 37.7689 98.0337 37.001 98.0337 36.0419C98.0337 34.6874 98.5151 33.6031 99.4813 32.7924C100.444 31.9783 101.819 31.573 103.602 31.573C104 31.573 104.415 31.5861 104.844 31.6125C105.272 31.6389 105.657 31.6652 106.002 31.6949C106.793 31.7608 106.68 31.0358 106.666 30.9105C106.597 30.1723 106.314 29.6318 105.826 29.2824C105.252 28.8771 104.475 28.6727 103.492 28.6727C102.509 28.6727 101.786 28.8046 101.214 29.0649C100.846 29.233 100.514 29.4044 100.225 29.5791C99.9661 29.734 99.634 29.6483 99.4614 29.4044L98.9634 28.6859C98.7741 28.4124 98.8505 28.04 99.1327 27.8653C99.5145 27.6247 99.9794 27.3907 100.517 27.1567C101.317 26.814 102.4 26.6426 103.764 26.6426C105.385 26.6426 106.666 27.0348 107.613 27.8224C108.559 28.6068 109.03 29.7241 109.03 31.1676L109.057 39.041C109.057 39.3607 108.798 39.6211 108.476 39.6211H107.33L107.324 39.6178Z" fill="#102850"/>
<path d="M133.617 35.0961V34.2128C133.617 33.8898 133.371 33.6196 133.046 33.5833C132.637 33.5405 132.123 33.4977 131.884 33.4812C131.475 33.4548 131.077 33.4416 130.695 33.4416C129.785 33.4416 129.088 33.5735 128.606 33.8338C128.125 34.0975 127.796 34.4205 127.624 34.8093C127.451 35.1982 127.365 35.5805 127.365 35.9595C127.365 36.6286 127.6 37.1427 128.075 37.5052C128.547 37.8678 129.204 38.0457 130.041 38.0457C130.678 38.0457 131.263 37.904 131.801 37.6272C132.338 37.347 132.773 36.9812 133.112 36.5297C133.447 36.0782 133.617 35.6003 133.617 35.0928M134.261 39.6178C133.949 39.6178 133.69 39.3706 133.68 39.0608L133.647 38.1018C133.192 38.7148 132.568 39.1827 131.777 39.4958C130.987 39.8122 130.19 39.9704 129.39 39.9704C128.699 39.9704 128.012 39.8419 127.328 39.5914C126.648 39.3376 126.083 38.9224 125.638 38.3456C125.193 37.7689 124.971 37.001 124.971 36.0419C124.971 34.6874 125.452 33.6031 126.418 32.7924C127.381 31.9783 128.756 31.573 130.539 31.573C130.937 31.573 131.352 31.5861 131.781 31.6125C132.209 31.6389 132.594 31.6652 132.939 31.6949C133.73 31.7608 133.617 31.0358 133.603 30.9105C133.534 30.1723 133.252 29.6318 132.763 29.2824C132.189 28.8771 131.412 28.6727 130.429 28.6727C129.447 28.6727 128.723 28.8046 128.152 29.0649C127.783 29.233 127.451 29.4044 127.162 29.5791C126.903 29.734 126.571 29.6483 126.399 29.4044L125.9 28.6859C125.711 28.4124 125.788 28.04 126.07 27.8653C126.452 27.6247 126.913 27.3907 127.454 27.1567C128.255 26.814 129.337 26.6426 130.702 26.6426C132.322 26.6426 133.603 27.0348 134.55 27.8224C135.496 28.6068 135.967 29.7241 135.967 31.1676L135.994 39.041C135.994 39.3607 135.735 39.6211 135.413 39.6211H134.268L134.261 39.6178Z" fill="#102850"/>
<path d="M71.1462 36.813L71.7273 37.4194C71.9929 37.6963 71.9564 38.1313 71.6675 38.3884C71.206 38.7937 70.6747 39.1365 70.0705 39.4166C69.2338 39.8055 68.2775 40 67.2051 40C65.8405 40 64.6618 39.7099 63.669 39.1332C62.6763 38.5564 61.9093 37.7655 61.3648 36.7636C60.8169 35.7617 60.5447 34.6082 60.5447 33.3097C60.5447 32.0804 60.8269 30.9631 61.3913 29.9513C61.9558 28.9396 62.7427 28.1321 63.752 27.5257C64.7614 26.9193 65.9135 26.6194 67.2051 26.6194C68.2775 26.6194 69.2238 26.8105 70.0439 27.1895C70.6316 27.4631 71.1562 27.8025 71.621 28.2145C71.9165 28.4749 71.9431 28.9264 71.6575 29.1999L71.0134 29.8162C70.7611 30.0568 70.366 30.0634 70.1103 29.8294C69.8214 29.5657 69.4994 29.3449 69.1408 29.167C68.5963 28.8967 67.9488 28.7616 67.2018 28.7616C66.3285 28.7616 65.5782 28.9758 64.9506 29.3977C64.3231 29.8228 63.845 30.3765 63.5163 31.0653C63.1876 31.7508 63.0249 32.5022 63.0249 33.313C63.0249 34.1237 63.1942 34.8257 63.5296 35.5211C63.8649 36.2165 64.343 36.7801 64.9606 37.2151C65.5782 37.6468 66.3252 37.8643 67.1985 37.8643C67.9455 37.8643 68.6129 37.7259 69.2039 37.4458C69.589 37.2645 69.9277 37.0404 70.2232 36.7801C70.4888 36.5461 70.8939 36.5625 71.1363 36.8196" fill="#102850"/>
<path d="M74.0282 38.886V27.763C74.0282 27.3576 74.3602 27.0281 74.7686 27.0281H75.7414C76.1498 27.0281 76.4819 27.3576 76.4819 27.763V38.886C76.4819 39.2914 76.1498 39.621 75.7414 39.621H74.7686C74.3602 39.621 74.0282 39.2914 74.0282 38.886Z" fill="#102850"/>
<path d="M84.5767 38.886V27.763C84.5767 27.3576 84.9087 27.0281 85.3171 27.0281H86.2899C86.6983 27.0281 87.0303 27.3576 87.0303 27.763V38.886C87.0303 39.2914 86.6983 39.621 86.2899 39.621H85.3171C84.9087 39.621 84.5767 39.2914 84.5767 38.886Z" fill="#102850"/>
<path d="M90.4535 22.9083H91.7716C92.087 22.9083 92.3427 23.1621 92.3427 23.4719V26.4578C92.3427 26.7709 92.5984 27.0214 92.9138 27.0214H95.487C95.8024 27.0214 96.0581 27.2751 96.0581 27.5882V28.488C96.0581 28.8011 95.8024 29.0515 95.487 29.0515H92.9138C92.5984 29.0515 92.3427 29.3053 92.3427 29.6151V35.254C92.3427 36.2658 92.5021 36.9612 92.8208 37.3402C93.1396 37.7192 93.5878 37.9104 94.1722 37.9104C94.6436 37.9104 95.0421 37.8379 95.3608 37.6929C95.5202 37.6204 95.6729 37.5314 95.8256 37.4226C96.3037 37.0766 96.5561 37.4127 96.6026 37.4754C96.6491 37.538 97.084 38.118 97.084 38.118C97.26 38.352 97.2334 38.6915 97.0077 38.8793C96.6026 39.2089 96.1909 39.4594 95.7725 39.6307C95.218 39.8581 94.5573 39.9702 93.7936 39.9702C92.4655 39.9702 91.4827 39.6044 90.8453 38.8727C90.2078 38.1411 89.889 37.0172 89.889 35.5012V23.4686C89.889 23.1555 90.1447 22.905 90.4601 22.905" fill="#102850"/>
<path d="M120.668 34.3115V30.1391C120.668 29.9348 120.578 29.7371 120.409 29.625C120.127 29.4372 119.795 29.2757 119.413 29.1405C118.905 28.9593 118.284 28.8703 117.557 28.8703C116.375 28.8703 115.385 29.2856 114.595 30.1161C113.805 30.9466 113.406 32.0836 113.406 33.5304C113.406 34.3247 113.539 35.0563 113.802 35.7254C114.064 36.3944 114.469 36.9217 115.017 37.3106C115.561 37.6995 116.255 37.8939 117.092 37.8939C117.929 37.8939 118.633 37.6995 119.15 37.3106C119.668 36.9217 120.05 36.4471 120.296 35.8902C120.542 35.3299 120.665 34.8059 120.665 34.3181M121.352 39.6275C121.013 39.6275 120.734 39.3638 120.718 39.0277L120.668 38.0291C120.542 38.1741 120.309 38.4081 119.971 38.7344C119.635 39.0606 119.184 39.3539 118.619 39.6143C118.055 39.8747 117.364 40.0065 116.544 40.0065C115.472 40.0065 114.505 39.7395 113.652 39.2056C112.796 38.6717 112.125 37.9203 111.633 36.9448C111.142 35.9693 110.896 34.8223 110.896 33.5041C110.896 32.311 111.102 31.2861 111.511 30.4292C111.919 29.5723 112.454 28.8703 113.108 28.3298C113.762 27.7893 114.469 27.3872 115.223 27.1236C115.976 26.8632 116.69 26.7314 117.364 26.7314C118.038 26.7314 118.652 26.8039 119.15 26.9489C119.652 27.0939 120.157 27.2917 120.665 27.5454V22.1899C120.665 21.8406 120.95 21.5571 121.302 21.5571H122.487C122.839 21.5571 123.122 21.8406 123.122 22.1899L123.098 38.9881C123.098 39.3408 122.809 39.6275 122.454 39.6275H121.352Z" fill="#102850"/>
<path d="M43.4686 7.15187C44.2223 6.6641 45.0823 6.42022 46.0485 6.42022C46.9582 6.42022 47.7252 6.57842 48.3527 6.8948C48.8242 7.13209 49.2359 7.432 49.5878 7.79783C49.963 8.2032 50.2353 7.94284 50.2353 7.94284L50.564 7.69566C50.564 7.69566 50.8462 7.4353 50.5076 7.08595C50.046 6.60808 49.4683 6.16645 48.8707 5.86654C48.0971 5.47765 47.1541 5.2832 46.0451 5.2832C44.8631 5.2832 43.794 5.57323 42.8378 6.14997C41.8816 6.72672 41.1279 7.50781 40.5734 8.49322C40.0189 9.47864 39.74 10.5926 39.74 11.8384C39.74 12.3756 39.8031 12.8864 39.906 13.3775C40.0388 14.0102 40.2513 14.6101 40.5568 15.167C40.7726 15.5625 41.0316 15.9185 41.3138 16.2447C41.3868 16.3304 42.0708 17.0489 42.8345 17.5268C43.7807 18.1167 44.8598 18.3935 46.0418 18.3935C47.1508 18.3935 48.0937 18.1991 48.8673 17.8102C49.465 17.5103 50.0427 17.0687 50.5042 16.5908C50.8429 16.2447 50.5607 15.9811 50.5607 15.9811L50.232 15.7339C50.232 15.7339 49.9564 15.4735 49.5845 15.8789C49.2326 16.2414 48.8209 16.5446 48.3494 16.7819C47.7219 17.0983 46.9516 17.2565 46.0451 17.2565C45.0789 17.2565 44.2223 17.0126 43.4653 16.5249C42.529 15.9185 41.9646 15.022 41.7056 14.5343C41.2673 13.7136 41.0515 12.8139 41.0515 11.8384C41.0515 10.8628 41.264 9.93674 41.6923 9.11611C42.1206 8.29548 42.7116 7.63963 43.4653 7.15187" fill="#102850"/>
<path d="M62.7228 14.5738C62.2679 15.4043 61.6504 16.0635 60.8668 16.5512C60.0832 17.039 59.2033 17.2829 58.2206 17.2829C57.2378 17.2829 56.4044 17.0291 55.6142 16.5249C54.8239 16.0206 54.1964 15.3549 53.7316 14.5343C53.2667 13.7136 53.0343 12.8139 53.0343 11.8384C53.0343 10.8628 53.2601 9.91038 53.715 9.08974C54.1698 8.26911 54.7874 7.61327 55.571 7.1255C56.3513 6.63774 57.2344 6.39386 58.2172 6.39386C59.2 6.39386 60.0533 6.64763 60.8369 7.15187C61.6205 7.65941 62.2414 8.32184 62.7062 9.14248C63.171 9.96311 63.4001 10.8628 63.4001 11.8384C63.4001 12.8139 63.1744 13.7433 62.7195 14.5738M61.4777 6.16316C60.5049 5.57652 59.4158 5.2832 58.2172 5.2832C57.0186 5.2832 55.9528 5.57652 54.97 6.16316C53.9872 6.74979 53.2037 7.54076 52.6226 8.53277C52.0416 9.52807 51.7494 10.6288 51.7494 11.8384C51.7494 13.0479 52.0416 14.1487 52.6226 15.144C53.2037 16.136 53.9872 16.9269 54.97 17.5136C55.9528 18.1002 57.0352 18.3935 58.2172 18.3935C59.3992 18.3935 60.5049 18.1002 61.4777 17.5136C62.4505 16.9269 63.2275 16.136 63.8118 15.144C64.3929 14.152 64.6851 13.0479 64.6851 11.8384C64.6851 10.6288 64.3929 9.52807 63.8118 8.53277C63.2308 7.54076 62.4505 6.74979 61.4777 6.16316Z" fill="#102850"/>
<path d="M87.0071 16.8574L86.8079 16.6596C86.6486 16.5015 86.3763 16.5179 86.197 16.6926C86.197 16.6926 85.689 17.2924 84.5966 17.2825C84.1617 17.2825 83.7732 17.21 83.4379 17.065C83.1025 16.92 82.8336 16.6102 82.631 16.129C82.4318 15.6512 82.3322 14.9228 82.3322 13.9473V6.74286H84.1849H86.021C86.2734 6.74286 86.4759 6.555 86.4759 6.32101V6.02769C86.4759 5.7937 86.2734 5.60584 86.021 5.60584H82.3322V2.78801V1.94101C82.3322 1.69054 82.1297 1.4895 81.8774 1.4895H81.5619C81.3096 1.4895 81.1071 1.69054 81.1071 1.94101V14.2472C81.1071 15.348 81.2465 16.1982 81.5287 16.7948C81.8109 17.3913 82.2061 17.8066 82.7174 18.0405C83.2254 18.2745 83.8097 18.3932 84.4638 18.3932C86.0974 18.4228 86.9773 17.4605 86.9773 17.4605C87.1565 17.2825 87.1698 17.0123 87.0105 16.8541" fill="#102850"/>
<path d="M97.7347 13.4631C97.7347 14.0959 97.5289 14.7056 97.1205 15.2923C96.7121 15.8789 96.1709 16.3568 95.4969 16.7292C94.8229 17.0983 94.0692 17.2829 93.2325 17.2829C92.2862 17.2829 91.5093 17.0752 90.8983 16.66C90.2874 16.2447 89.9853 15.5856 89.9853 14.6826C89.9853 14.3761 90.0251 14.0333 90.1081 13.6543C90.1911 13.2753 90.3704 12.9128 90.6526 12.57C90.9349 12.2273 91.3499 11.9438 91.8944 11.7164C92.4423 11.4923 93.176 11.377 94.1057 11.377C95.0354 11.377 95.7293 11.4099 96.3037 11.4725C96.8781 11.5352 97.3529 11.611 97.7347 11.7032V13.4631ZM93.86 5.2832C92.9071 5.2832 92.0837 5.42492 91.3798 5.69187L91.3731 5.68528L91.2304 5.75119C91.1673 5.77756 91.0976 5.79733 91.0345 5.82699C90.9083 5.88632 90.7987 5.94234 90.6825 6.00167L90.6095 6.03462L90.563 6.06099C90.387 6.15327 90.2243 6.24225 90.0782 6.33124L89.7396 6.51909C89.5271 6.65422 89.4773 6.94424 89.6034 7.14198L89.713 7.32654C89.8392 7.52428 90.1148 7.57372 90.3273 7.4386L90.6361 7.26392C90.8651 7.1255 91.1208 6.98708 91.4163 6.84207C92.0239 6.54546 92.8473 6.39386 93.8866 6.39386C95.125 6.39386 96.0713 6.63774 96.7254 7.1255C97.3795 7.61327 97.7082 8.54266 97.7082 9.91697V10.6222C97.2898 10.5497 96.7785 10.4871 96.1809 10.4311C95.5799 10.3784 94.8992 10.3487 94.1356 10.3487C92.8241 10.3487 91.7716 10.5432 90.9714 10.932C90.1712 11.3209 89.5869 11.8384 89.2249 12.4909C88.8597 13.1402 88.6804 13.8718 88.6804 14.6859C88.6804 15.6614 88.9029 16.4194 89.3478 16.9599C89.7927 17.5004 90.3572 17.8761 91.0411 18.0837C91.7218 18.2914 92.4091 18.3968 93.103 18.3968C93.5745 18.3968 94.0957 18.3276 94.6602 18.1925C95.2246 18.0574 95.7791 17.8135 96.3236 17.4608C96.8648 17.1115 97.3529 16.6237 97.7845 16.0008V17.6157C97.7845 17.8662 97.9771 18.0673 98.2129 18.0673H98.5117C98.7507 18.0673 98.94 17.8662 98.94 17.6157V9.72582C98.94 8.13729 98.4984 7.00027 97.6152 6.31146C96.732 5.62596 95.4836 5.2832 93.8633 5.2832H93.86Z" fill="#102850"/>
<path d="M151.254 13.4631C151.254 14.0959 151.048 14.7056 150.64 15.2923C150.231 15.8789 149.69 16.3568 149.016 16.7292C148.342 17.0983 147.588 17.2829 146.752 17.2829C145.805 17.2829 145.028 17.0752 144.417 16.66C143.807 16.2447 143.504 15.5856 143.504 14.6826C143.504 14.3761 143.544 14.0333 143.627 13.6543C143.71 13.2753 143.89 12.9128 144.172 12.57C144.454 12.2273 144.869 11.9438 145.414 11.7164C145.958 11.4923 146.695 11.377 147.625 11.377C148.555 11.377 149.248 11.4099 149.823 11.4725C150.397 11.5352 150.872 11.611 151.254 11.7032V13.4631ZM147.379 5.2832C146.426 5.2832 145.603 5.42492 144.899 5.69187L144.892 5.68528L144.75 5.75119C144.686 5.77756 144.617 5.79733 144.554 5.82699C144.427 5.88632 144.318 5.94234 144.205 6.00167L144.132 6.03462L144.085 6.06099C143.909 6.15327 143.747 6.24225 143.601 6.33124L143.262 6.51909C143.05 6.65422 143 6.94424 143.126 7.14198L143.235 7.32654C143.362 7.52428 143.637 7.57372 143.85 7.4386L144.159 7.26392C144.388 7.1255 144.643 6.98708 144.939 6.84207C145.55 6.54546 146.37 6.39386 147.409 6.39386C148.647 6.39386 149.594 6.63774 150.248 7.1255C150.902 7.61327 151.231 8.54266 151.231 9.91697V10.6222C150.812 10.5497 150.304 10.4871 149.703 10.4311C149.102 10.3784 148.422 10.3487 147.658 10.3487C146.347 10.3487 145.294 10.5432 144.494 10.932C143.694 11.3209 143.109 11.8384 142.747 12.4909C142.382 13.1402 142.203 13.8718 142.203 14.6859C142.203 15.6614 142.425 16.4194 142.87 16.9599C143.315 17.5004 143.88 17.8761 144.564 18.0837C145.248 18.2914 145.932 18.3968 146.625 18.3968C147.097 18.3968 147.618 18.3276 148.183 18.1925C148.747 18.0574 149.302 17.8135 149.846 17.4608C150.387 17.1115 150.875 16.6237 151.307 16.0008V17.6157C151.307 17.8662 151.5 18.0673 151.735 18.0673H152.034C152.273 18.0673 152.462 17.8662 152.462 17.6157V9.72582C152.462 8.13729 152.021 7.00027 151.138 6.31146C150.254 5.62596 149.003 5.2832 147.386 5.2832H147.379Z" fill="#102850"/>
<path d="M111.179 14.8307C110.687 15.6348 110.02 16.2412 109.173 16.6466C108.326 17.052 107.367 17.2563 106.294 17.2563C105.972 17.2563 105.677 17.2497 105.405 17.2333C104.518 17.1542 103.728 16.9795 103.28 16.8641C103.077 16.8114 102.938 16.6301 102.938 16.4192V11.4295C102.938 10.9055 103.027 10.3551 103.21 9.77836C103.393 9.20162 103.668 8.65782 104.043 8.15358C104.415 7.64934 104.883 7.23737 105.448 6.92099C106.012 6.6046 106.676 6.4464 107.44 6.4464C108.532 6.4464 109.405 6.69029 110.06 7.17805C110.714 7.66582 111.188 8.32166 111.477 9.14229C111.77 9.96292 111.912 10.8627 111.912 11.8382C111.912 13.0312 111.667 14.0265 111.175 14.8307M110.767 6.14979C109.93 5.57304 108.864 5.28302 107.573 5.28302C106.663 5.28302 105.909 5.42144 105.308 5.70157C104.707 5.98171 104.226 6.31458 103.861 6.70347C103.495 7.09236 103.197 7.46807 102.961 7.82731V0.451512C102.961 0.201038 102.758 0 102.506 0H102.191C101.938 0 101.736 0.201038 101.736 0.451512V17.1146C101.736 17.4277 101.935 17.7012 102.234 17.8001C102.642 17.9352 103.134 18.0572 103.698 18.1626C104.518 18.3175 105.371 18.3933 106.265 18.3933C107.576 18.3933 108.751 18.1396 109.797 17.6353C110.843 17.1311 111.677 16.3896 112.294 15.414C112.912 14.4385 113.22 13.2553 113.22 11.8645C113.22 10.6188 113.021 9.49823 112.619 8.50622C112.221 7.51421 111.6 6.72654 110.763 6.14979H110.767Z" fill="#102850"/>
<path d="M179.499 11.1067H170.345C170.398 10.2399 170.628 9.45557 171.026 8.75029C171.424 8.04501 171.969 7.48144 172.65 7.05629C173.334 6.63115 174.12 6.42022 175.01 6.42022C176.302 6.42022 177.361 6.8223 178.191 7.62645C178.985 8.39765 179.473 9.49841 179.655 10.9255C179.669 11.0177 179.592 11.1067 179.496 11.1067M180.236 8.38446C179.718 7.36279 179.005 6.5916 178.095 6.06758C177.185 5.54356 176.159 5.2832 175.01 5.2832C173.861 5.2832 172.776 5.57652 171.859 6.16316C170.94 6.74979 170.226 7.54076 169.718 8.53277C169.206 9.52807 168.954 10.6288 168.954 11.8384C168.954 13.1204 169.226 14.2574 169.774 15.2527C170.319 16.248 171.079 17.0192 172.052 17.5696C173.025 18.12 174.13 18.3968 175.369 18.3968C176.352 18.3968 177.311 18.1991 178.247 17.8003C179.018 17.474 179.655 17.0555 180.163 16.5446C180.495 16.2282 180.19 15.9646 180.19 15.9646L179.908 15.7273C179.908 15.7273 179.619 15.49 179.29 15.8163C178.898 16.1986 178.387 16.5183 177.756 16.7687C176.946 17.095 176.149 17.2565 175.369 17.2565C174.386 17.2565 173.523 17.0258 172.776 16.5644C172.029 16.103 171.441 15.49 171.016 14.7221C170.588 13.9542 170.355 13.1006 170.322 12.1613H180.406C180.741 12.1613 181.023 11.8812 181.007 11.5483C180.944 10.3157 180.691 9.26112 180.243 8.38117L180.236 8.38446Z" fill="#102850"/>
<path d="M73.2414 5.21387C72.2951 5.21387 71.4949 5.38195 70.8408 5.71481C70.1867 6.04768 69.6588 6.44317 69.2571 6.89468C68.8553 7.34619 68.5565 7.76145 68.3573 8.14046C68.3573 7.74827 68.354 5.98836 68.354 5.98836C68.354 5.73788 68.1514 5.53685 67.8991 5.53685H67.6833C67.4309 5.53685 67.2284 5.73788 67.2284 5.98836V17.5497C67.2284 17.8002 67.4309 18.0012 67.6833 18.0012H67.9588C68.2112 18.0012 68.4137 17.8002 68.4137 17.5497V11.5812C68.4137 10.7869 68.5831 9.98605 68.9184 9.1819C69.2537 8.37775 69.7684 7.70542 70.459 7.16493C71.1496 6.62443 72.0228 6.35089 73.0787 6.35089C73.8789 6.35089 74.5562 6.48601 75.1107 6.75626C75.6651 7.02651 76.0901 7.50438 76.379 8.19319C76.6712 8.87869 76.8173 9.84434 76.8173 11.0934V17.5497C76.8173 17.8002 77.0198 18.0012 77.2721 18.0012H77.5876C77.8399 18.0012 78.0424 17.8002 78.0424 17.5497V10.688C78.0424 9.00723 77.6872 7.67576 76.98 6.69364C76.2694 5.71152 75.0243 5.21716 73.2414 5.21716" fill="#102850"/>
<path d="M138.222 14.465C138.039 14.9165 137.764 15.3548 137.388 15.78C137.017 16.2051 136.545 16.5578 135.984 16.8379C135.42 17.118 134.756 17.2564 133.992 17.2564C132.919 17.2564 132.05 17.0093 131.385 16.5116C130.721 16.014 130.243 15.3647 129.951 14.5606C129.659 13.7564 129.516 12.8929 129.516 11.9734C129.516 10.6551 129.762 9.59063 130.253 8.77659C130.745 7.96255 131.385 7.36932 132.176 6.99032C132.966 6.61131 133.789 6.42016 134.646 6.42016C135.283 6.42016 135.848 6.49267 136.339 6.63768C136.831 6.78269 137.229 6.94418 137.541 7.12544C137.724 7.21772 137.896 7.31989 138.059 7.43853C138.222 7.55718 138.368 7.67912 138.497 7.80436V13.2489C138.497 13.6114 138.404 14.0168 138.225 14.4683M139.699 0.679038V0.45493C139.699 0.204456 139.5 0.00341797 139.254 0.00341797H138.946C138.7 0.00341797 138.501 0.204456 138.501 0.45493V6.47619C138.119 6.24219 137.737 6.04445 137.355 5.87966C136.99 5.73465 136.585 5.59953 136.14 5.47429C135.695 5.34906 135.207 5.28314 134.679 5.28314C133.424 5.28314 132.308 5.55998 131.336 6.11036C130.363 6.66075 129.599 7.43524 129.045 8.42725C128.49 9.41925 128.211 10.5958 128.211 11.9504C128.211 13.1434 128.417 14.2244 128.826 15.1999C129.234 16.1755 129.858 16.9532 130.695 17.53C131.532 18.1067 132.587 18.3968 133.862 18.3968C134.682 18.3968 135.38 18.2649 135.964 18.0046C136.545 17.7442 137.03 17.4575 137.412 17.151C137.647 16.9697 137.857 16.7753 138.039 16.5676C138.222 16.36 138.375 16.1392 138.504 15.9052V17.6124C138.504 17.8629 138.703 18.0639 138.949 18.0639H139.258C139.503 18.0639 139.703 17.8629 139.703 17.6124V15.7899V12.57V0.675742L139.699 0.679038Z" fill="#102850"/>
<path d="M164.977 14.465C164.794 14.9165 164.518 15.3548 164.143 15.78C163.771 16.2051 163.3 16.5578 162.739 16.8379C162.174 17.118 161.51 17.2564 160.747 17.2564C159.674 17.2564 158.804 17.0093 158.14 16.5116C157.476 16.014 156.998 15.3647 156.706 14.5606C156.414 13.7564 156.268 12.8929 156.268 11.9734C156.268 10.6551 156.513 9.59063 157.005 8.77659C157.496 7.96255 158.137 7.36932 158.927 6.99032C159.717 6.61131 160.541 6.42016 161.397 6.42016C162.035 6.42016 162.599 6.49267 163.091 6.63768C163.582 6.78269 163.98 6.94418 164.293 7.12544C164.475 7.21772 164.648 7.31989 164.811 7.43853C164.973 7.55718 165.119 7.67912 165.249 7.80436V13.2489C165.249 13.6114 165.156 14.0168 164.977 14.4683M166.451 0.679038V0.45493C166.451 0.204456 166.251 0.00341797 166.006 0.00341797H165.697C165.451 0.00341797 165.252 0.204456 165.252 0.45493V6.47619C164.87 6.24219 164.488 6.04445 164.107 5.87966C163.741 5.73465 163.336 5.59953 162.891 5.47429C162.446 5.34906 161.958 5.28314 161.43 5.28314C160.175 5.28314 159.06 5.55998 158.087 6.11036C157.114 6.66075 156.351 7.43524 155.796 8.42725C155.242 9.41925 154.963 10.5958 154.963 11.9504C154.963 13.1434 155.169 14.2244 155.577 15.1999C155.985 16.1755 156.609 16.9532 157.446 17.53C158.283 18.1067 159.339 18.3968 160.614 18.3968C161.434 18.3968 162.131 18.2649 162.715 18.0046C163.296 17.7442 163.781 17.4575 164.163 17.151C164.399 16.9697 164.608 16.7753 164.791 16.5676C164.973 16.36 165.126 16.1392 165.255 15.9052V17.6124C165.255 17.8629 165.455 18.0639 165.7 18.0639H166.009C166.255 18.0639 166.454 17.8629 166.454 17.6124V15.7899V12.57V0.675742L166.451 0.679038Z" fill="#102850"/>
<path d="M116.149 3.96465H116.551C116.766 3.96465 116.939 3.79328 116.939 3.57906V3.18028C116.939 2.96605 116.766 2.79468 116.551 2.79468H116.149C115.933 2.79468 115.76 2.96605 115.76 3.18028V3.57906C115.76 3.79328 115.933 3.96465 116.149 3.96465Z" fill="#102850"/>
<path d="M125.283 2.7981H124.881C124.665 2.7981 124.493 2.97277 124.493 3.18369V3.58247C124.493 3.7967 124.665 3.96807 124.881 3.96807H125.283C125.499 3.96807 125.671 3.7967 125.671 3.58247V3.18369C125.671 2.96947 125.499 2.7981 125.283 2.7981Z" fill="#102850"/>
<path d="M116.564 5.60596H116.132C115.913 5.60596 115.734 5.78392 115.734 6.00144V17.6715C115.734 17.8891 115.913 18.067 116.132 18.067H116.564C116.783 18.067 116.962 17.8891 116.962 17.6715V6.00144C116.962 5.78392 116.783 5.60596 116.564 5.60596Z" fill="#102850"/>
<path d="M120.93 0H120.498C120.279 0 120.1 0.177968 120.1 0.395485V17.6716C120.1 17.8891 120.279 18.0671 120.498 18.0671H120.93C121.149 18.0671 121.328 17.8891 121.328 17.6716V0.395485C121.328 0.177968 121.149 0 120.93 0Z" fill="#102850"/>
<path d="M125.273 5.60596H124.841C124.622 5.60596 124.443 5.78392 124.443 6.00144V17.6715C124.443 17.8891 124.622 18.067 124.841 18.067H125.273C125.492 18.067 125.671 17.8891 125.671 17.6715V6.00144C125.671 5.78392 125.492 5.60596 125.273 5.60596Z" fill="#102850"/>
</g>
<defs>
<clipPath id="clip0_1_1409">
<rect width="181" height="40" fill="white"/>
</clipPath>
</defs>
</svg>
