<svg width="213" height="48" viewBox="0 0 213 48" fill="none" xmlns="http://www.w3.org/2000/svg">
<g clip-path="url(#clip0_29_1784)">
<path fill-rule="evenodd" clip-rule="evenodd" d="M32.9655 30.7517C32.9069 30.926 32.8639 31.1312 32.8131 31.3055C32.4614 32.4943 31.8871 33.7064 31.2189 34.6977C30.9376 35.1198 30.6328 35.5458 30.2929 35.9098C30.2382 35.9718 30.1835 36.0415 30.1288 36.1034L29.6091 36.6533C29.5036 36.7579 29.1872 37.0638 29.0543 37.1684C28.859 37.3233 28.6753 37.4898 28.476 37.6447C27.3976 38.4695 26.2567 39.1317 24.772 39.6429C22.9981 40.2547 21.5993 40.3128 19.7199 40.3089C18.0398 40.3089 16.3362 39.941 14.9609 39.3563C13.8356 38.88 12.7376 38.2527 11.8233 37.4898C11.6631 37.3581 11.206 36.9747 11.0692 36.8315C10.7996 36.5526 10.4323 36.2119 10.2018 35.9137C10.0455 35.7123 9.87361 35.5342 9.72122 35.3251C9.42037 34.903 9.13123 34.5119 8.86944 34.0549C8.16614 32.8273 7.63084 31.503 7.34952 29.892C6.75562 26.43 7.74025 23.1539 9.33441 20.8537C9.75248 20.2496 10.1393 19.8004 10.6082 19.2737C10.6668 19.2079 10.7254 19.1614 10.7879 19.0956L11.331 18.569C11.835 18.1275 12.3664 17.7054 12.9447 17.3414C13.2221 17.1671 13.5347 16.9696 13.8434 16.8109C14.4842 16.4856 15.0976 16.2068 15.84 15.9589C16.5745 15.715 17.3599 15.5368 18.1765 15.4323C19.0986 15.3161 19.9895 15.3316 20.9272 15.3316H38.0996C38.0605 15.2619 38.0176 15.2154 37.9707 15.1573C37.7675 14.8824 37.5487 14.6229 37.3221 14.3635L36.2085 13.1553L34.3799 11.5056C33.2429 10.5607 31.8519 9.67005 30.5352 8.99237C29.531 8.47733 28.4292 8.00102 27.2726 7.62152C26.7842 7.46275 24.9986 6.9206 24.4828 6.9206C24.0999 6.9206 23.717 6.9206 23.3341 6.9206C21.9626 6.9206 20.0676 6.88188 18.7509 6.99031C17.3912 7.10261 16.0666 7.34657 14.828 7.70284C13.6402 8.04361 12.5735 8.47733 11.4756 8.98462C11.206 9.10854 10.9676 9.24795 10.7098 9.37961C10.0807 9.70103 9.14686 10.2819 8.56468 10.7156C7.99422 11.1416 7.38078 11.5792 6.86502 12.0671C6.83767 12.0942 6.81423 12.1097 6.78297 12.1329L5.47795 13.4147C5.30994 13.5657 4.97001 13.9801 4.79027 14.1853C4.74729 14.2318 4.70431 14.2899 4.66133 14.3402C4.22372 14.8669 3.81346 15.4168 3.42664 15.986C2.94996 16.6869 2.5436 17.3956 2.14897 18.1701C-0.148496 22.6815 -0.726769 28.2772 1.01977 33.4779C1.21514 34.0549 1.42613 34.6087 1.66447 35.1508C2.11771 36.1886 2.67645 37.2342 3.28989 38.1597C4.05962 39.3098 4.90749 40.3748 5.87649 41.3545C6.03668 41.5133 6.57979 42.0438 6.76343 42.1909C6.7986 42.218 6.80641 42.2335 6.83767 42.2645C6.86502 42.2916 6.88847 42.3071 6.91972 42.3303L7.70508 42.9887C8.11925 43.3217 8.56858 43.6431 9.04136 43.9607C12.8158 46.5049 18.1726 48.1274 23.842 47.1361C25.8152 46.7914 27.4015 46.2648 29.152 45.4709C29.9295 45.1185 30.6641 44.6771 31.3908 44.2395C31.8714 43.949 32.3169 43.6276 32.7623 43.2907C32.9772 43.1281 33.196 42.9616 33.4031 42.7873L33.7196 42.524C33.9384 42.3536 34.1337 42.1561 34.3369 41.9818C34.3955 41.9315 34.4307 41.885 34.4854 41.8347C34.9386 41.4281 35.3333 40.9905 35.7631 40.5258C35.8529 40.4251 35.9389 40.3205 36.0327 40.216C36.6227 39.5654 37.2556 38.6283 37.748 37.8886C38.0527 37.4317 38.3223 36.9244 38.5958 36.4171C39.7289 34.3105 40.4791 31.7547 40.7448 29.3344C40.7839 28.9781 40.8112 28.6257 40.8308 28.2656C40.8503 27.9519 40.8855 27.4524 40.8581 27.1503C40.7878 27.189 40.6354 27.3362 40.5612 27.4059C40.526 27.4408 40.4987 27.4524 40.4635 27.4872C40.0845 27.8319 39.682 28.1184 39.2522 28.4166C37.5174 29.6287 35.1223 30.5619 32.9655 30.7633" fill="#F49739"/>
<path fill-rule="evenodd" clip-rule="evenodd" d="M24.9869 20.0404H19.0869V36.7423L19.9348 36.7849C21.1539 36.812 22.326 36.6842 23.4318 36.3163C24.7212 35.8864 25.569 35.2552 25.6628 35.2204V26.7552C25.7722 26.7281 32.4732 26.7436 33.2038 26.7475C33.5086 26.7475 34.5401 26.4144 34.8214 26.3099C35.5169 26.0582 36.0444 25.7755 36.6617 25.4076C36.9782 25.2178 37.5799 24.7841 37.8495 24.5402L38.1191 24.3039C38.6896 23.7618 39.0178 23.4055 39.4906 22.7627C39.682 22.5032 39.8501 22.2283 40.0298 21.934C40.1939 21.659 40.8542 20.3656 40.8581 20.021C35.556 20.021 30.289 20.0365 24.9869 20.0365" fill="#F49739"/>
<path fill-rule="evenodd" clip-rule="evenodd" d="M40.8581 14.9017V6.92444H31.9066L32.5826 7.30394C33.2742 7.69118 33.8759 8.09392 34.5245 8.53151C34.923 8.80258 35.6459 9.34472 36.0249 9.66614C36.1225 9.74746 36.2241 9.82104 36.3179 9.9101L36.6696 10.2122C36.6969 10.2354 36.7164 10.247 36.7438 10.2741C36.8063 10.3322 36.8376 10.3516 36.8845 10.398L37.7011 11.157C37.748 11.2035 37.7831 11.2577 37.83 11.2964C37.9941 11.4397 38.5685 12.04 38.7365 12.2336L38.9866 12.5163C39.1194 12.6867 39.3304 12.9035 39.475 13.0855C39.8032 13.5076 40.065 13.8019 40.3971 14.2744L40.8269 14.8746C40.8542 14.9017 40.8191 14.8746 40.8581 14.9017Z" fill="#F49739"/>
<path d="M93.2817 46.4195V26.8017C93.2817 26.3564 93.6451 25.9962 94.0944 25.9962H95.3565C95.8058 25.9962 96.1692 26.3564 96.1692 26.8017V46.4195C96.1692 46.8649 95.8058 47.225 95.3565 47.225H94.0944C93.6451 47.225 93.2817 46.8649 93.2817 46.4195Z" fill="white"/>
<path d="M47.5513 31.2164C47.5513 29.8804 47.7974 28.7884 48.2897 27.9365C48.7821 27.0884 49.4228 26.4611 50.216 26.0583C51.0092 25.6556 51.8532 25.4542 52.7518 25.4542C53.545 25.4542 54.3186 25.5781 55.0805 25.8182C55.6784 26.0119 56.241 26.31 56.7646 26.7166C57.0068 26.9064 57.0342 27.2665 56.8466 27.5066L56.0847 28.4786C55.8933 28.7226 55.5494 28.7574 55.2876 28.5832C54.6273 28.1495 53.9318 27.9326 53.2012 27.9326C52.365 27.9326 51.6969 28.1998 51.1928 28.7264C50.6888 29.257 50.4387 30.1709 50.4387 31.4643V31.8825C50.4387 31.8825 50.4153 32.4208 50.9936 32.4208H54.135C54.4515 32.4208 54.7094 32.6764 54.7094 32.99V34.237C54.7094 34.5506 54.4515 34.8062 54.135 34.8062H51.0131C50.6966 34.8062 50.4387 35.0618 50.4387 35.3755V46.6482C50.4387 46.9618 50.1809 47.2174 49.8644 47.2174H48.1256C47.8091 47.2174 47.5513 46.9618 47.5513 46.6482V31.2087V31.2164Z" fill="white"/>
<path d="M66.0639 41.9083V40.8704C66.0639 40.4909 65.7748 40.1734 65.3918 40.1308C64.9113 40.0805 64.3056 40.0301 64.0243 40.0107C63.5437 39.9798 63.0787 39.9643 62.6294 39.9643C61.5588 39.9643 60.7383 40.1192 60.1718 40.4251C59.6052 40.7349 59.2184 41.1144 59.0152 41.5714C58.812 42.0283 58.7104 42.4775 58.7104 42.9228C58.7104 43.7089 58.9879 44.3131 59.5466 44.739C60.1014 45.165 60.8751 45.3741 61.8597 45.3741C62.6099 45.3741 63.2976 45.2076 63.9305 44.8823C64.5635 44.5531 65.0754 44.1233 65.4739 43.5928C65.8685 43.0622 66.0678 42.5007 66.0678 41.9044M66.8258 47.2213C66.4585 47.2213 66.1538 46.9308 66.142 46.5668L66.103 45.4399C65.5677 46.1602 64.8331 46.7101 63.9032 47.078C62.9733 47.4497 62.0355 47.6356 61.0939 47.6356C60.2812 47.6356 59.4724 47.4846 58.6675 47.1903C57.8665 46.8921 57.2022 46.4042 56.6787 45.7265C56.1551 45.0488 55.8933 44.1465 55.8933 43.0197C55.8933 41.4281 56.4599 40.154 57.5969 39.2014C58.73 38.2449 60.3476 37.7686 62.4458 37.7686C62.9146 37.7686 63.403 37.7841 63.9071 37.8151C64.4111 37.846 64.8644 37.877 65.2707 37.9119C66.2006 37.9893 66.0678 37.1374 66.0522 36.9902C65.9701 36.1228 65.638 35.4877 65.0636 35.0772C64.3877 34.6009 63.4734 34.3608 62.3168 34.3608C61.1603 34.3608 60.3085 34.5157 59.6365 34.8217C59.2028 35.0192 58.812 35.2205 58.4721 35.4258C58.1673 35.6078 57.7766 35.5071 57.5734 35.2205L56.9873 34.3763C56.7646 34.0549 56.8545 33.6173 57.1866 33.4121C57.6359 33.1294 58.1791 32.8545 58.8159 32.5795C59.7576 32.1768 61.0313 31.9754 62.6372 31.9754C64.544 31.9754 66.0522 32.4362 67.1657 33.3617C68.2793 34.2834 68.8341 35.5962 68.8341 37.2923L68.8654 46.5436C68.8654 46.9192 68.5606 47.2251 68.1816 47.2251H66.8336L66.8258 47.2213Z" fill="white"/>
<path d="M125.544 41.9083V40.8704C125.544 40.4909 125.255 40.1734 124.872 40.1308C124.391 40.0805 123.786 40.0301 123.504 40.0107C123.024 39.9798 122.555 39.9643 122.106 39.9643C121.035 39.9643 120.214 40.1192 119.648 40.4251C119.081 40.7349 118.695 41.1144 118.491 41.5714C118.288 42.0283 118.187 42.4775 118.187 42.9228C118.187 43.7089 118.464 44.3131 119.023 44.739C119.578 45.165 120.351 45.3741 121.336 45.3741C122.086 45.3741 122.774 45.2076 123.407 44.8823C124.04 44.5531 124.552 44.1233 124.946 43.5928C125.341 43.0622 125.54 42.5007 125.54 41.9044M126.298 47.2213C125.931 47.2213 125.626 46.9308 125.614 46.5668L125.575 45.4399C125.04 46.1602 124.305 46.7101 123.375 47.078C122.446 47.4497 121.508 47.6356 120.566 47.6356C119.753 47.6356 118.945 47.4846 118.14 47.1903C117.339 46.8921 116.675 46.4042 116.151 45.7265C115.627 45.0488 115.366 44.1465 115.366 43.0197C115.366 41.4281 115.932 40.154 117.069 39.2014C118.202 38.2449 119.82 37.7686 121.918 37.7686C122.387 37.7686 122.875 37.7841 123.379 37.8151C123.883 37.846 124.337 37.877 124.743 37.9119C125.673 37.9893 125.54 37.1374 125.524 36.9902C125.442 36.1228 125.11 35.4877 124.536 35.0772C123.86 34.6009 122.946 34.3608 121.789 34.3608C120.633 34.3608 119.781 34.5157 119.109 34.8217C118.675 35.0192 118.284 35.2205 117.944 35.4258C117.64 35.6078 117.249 35.5071 117.046 35.2205L116.46 34.3763C116.237 34.0549 116.327 33.6173 116.659 33.4121C117.108 33.1294 117.655 32.8545 118.288 32.5795C119.23 32.1768 120.504 31.9754 122.11 31.9754C124.016 31.9754 125.524 32.4362 126.638 33.3617C127.752 34.2834 128.306 35.5962 128.306 37.2923L128.338 46.5436C128.338 46.9192 128.033 47.2251 127.654 47.2251H126.306L126.298 47.2213Z" fill="white"/>
<path d="M157.24 41.9083V40.8704C157.24 40.4909 156.95 40.1734 156.567 40.1308C156.087 40.0805 155.481 40.0301 155.2 40.0107C154.719 39.9798 154.25 39.9643 153.801 39.9643C152.731 39.9643 151.91 40.1192 151.343 40.4251C150.777 40.7349 150.39 41.1144 150.187 41.5714C149.984 42.0283 149.882 42.4775 149.882 42.9228C149.882 43.7089 150.16 44.3131 150.718 44.739C151.273 45.165 152.047 45.3741 153.031 45.3741C153.782 45.3741 154.469 45.2076 155.102 44.8823C155.735 44.5531 156.247 44.1233 156.646 43.5928C157.04 43.0622 157.24 42.5007 157.24 41.9044M157.998 47.2213C157.63 47.2213 157.326 46.9308 157.314 46.5668L157.275 45.4399C156.739 46.1602 156.005 46.7101 155.075 47.078C154.145 47.4497 153.207 47.6356 152.266 47.6356C151.453 47.6356 150.644 47.4846 149.839 47.1903C149.038 46.8921 148.374 46.4042 147.85 45.7265C147.327 45.0488 147.065 44.1465 147.065 43.0197C147.065 41.4281 147.632 40.154 148.769 39.2014C149.902 38.2449 151.519 37.7686 153.618 37.7686C154.086 37.7686 154.575 37.7841 155.079 37.8151C155.583 37.846 156.036 37.877 156.442 37.9119C157.372 37.9893 157.24 37.1374 157.224 36.9902C157.142 36.1228 156.81 35.4877 156.235 35.0772C155.559 34.6009 154.645 34.3608 153.489 34.3608C152.332 34.3608 151.48 34.5157 150.808 34.8217C150.375 35.0192 149.984 35.2205 149.644 35.4258C149.339 35.6078 148.948 35.5071 148.745 35.2205L148.159 34.3763C147.936 34.0549 148.026 33.6173 148.358 33.4121C148.808 33.1294 149.351 32.8545 149.988 32.5795C150.929 32.1768 152.203 31.9754 153.809 31.9754C155.716 31.9754 157.224 32.4362 158.337 33.3617C159.451 34.2834 160.006 35.5962 160.006 37.2923L160.037 46.5436C160.037 46.9192 159.732 47.2251 159.353 47.2251H158.005L157.998 47.2213Z" fill="white"/>
<path d="M83.7246 43.9257L84.4084 44.6383C84.721 44.9636 84.678 45.4747 84.3381 45.7768C83.795 46.2531 83.1698 46.6558 82.4587 46.985C81.4741 47.4419 80.3488 47.6704 79.0867 47.6704C77.4808 47.6704 76.0938 47.3296 74.9255 46.652C73.7572 45.9743 72.8547 45.0449 72.2139 43.8677C71.5692 42.6904 71.2488 41.3351 71.2488 39.8093C71.2488 38.3649 71.5809 37.0521 72.2451 35.8633C72.9094 34.6745 73.8354 33.7257 75.0232 33.0132C76.211 32.3006 77.5668 31.9482 79.0867 31.9482C80.3488 31.9482 81.4623 32.1728 82.4274 32.6182C83.119 32.9396 83.7364 33.3385 84.2834 33.8225C84.6311 34.1284 84.6624 34.659 84.3264 34.9804L83.5683 35.7045C83.2714 35.9872 82.8064 35.995 82.5056 35.72C82.1656 35.4102 81.7866 35.1508 81.3647 34.9417C80.7239 34.6241 79.9619 34.4653 79.0828 34.4653C78.0552 34.4653 77.1722 34.717 76.4337 35.2127C75.6952 35.7123 75.1326 36.3628 74.7458 37.1722C74.359 37.9777 74.1675 38.8606 74.1675 39.8132C74.1675 40.7658 74.3668 41.5907 74.7614 42.4077C75.156 43.2248 75.7187 43.887 76.4454 44.3982C77.1722 44.9055 78.0513 45.1611 79.0789 45.1611C79.958 45.1611 80.7434 44.9984 81.4389 44.6693C81.8921 44.4563 82.2907 44.1929 82.6384 43.887C82.951 43.6121 83.4277 43.6314 83.7129 43.9335" fill="white"/>
<path d="M87.1161 46.3616V33.2921C87.1161 32.8158 87.5068 32.4285 87.9874 32.4285H89.1322C89.6128 32.4285 90.0035 32.8158 90.0035 33.2921V46.3616C90.0035 46.8379 89.6128 47.2252 89.1322 47.2252H87.9874C87.5068 47.2252 87.1161 46.8379 87.1161 46.3616Z" fill="white"/>
<path d="M99.5295 46.3616V33.2921C99.5295 32.8158 99.9203 32.4285 100.401 32.4285H101.546C102.026 32.4285 102.417 32.8158 102.417 33.2921V46.3616C102.417 46.8379 102.026 47.2252 101.546 47.2252H100.401C99.9203 47.2252 99.5295 46.8379 99.5295 46.3616Z" fill="white"/>
<path d="M106.445 27.5877H107.996C108.368 27.5877 108.668 27.8859 108.668 28.2499V31.7584C108.668 32.1263 108.969 32.4206 109.341 32.4206H112.369C112.74 32.4206 113.041 32.7187 113.041 33.0866V34.1438C113.041 34.5117 112.74 34.806 112.369 34.806H109.341C108.969 34.806 108.668 35.1042 108.668 35.4682V42.094C108.668 43.2828 108.856 44.0999 109.231 44.5452C109.606 44.9906 110.134 45.2152 110.821 45.2152C111.376 45.2152 111.845 45.13 112.22 44.9596C112.408 44.8744 112.587 44.7698 112.767 44.642C113.33 44.2354 113.627 44.6304 113.681 44.704C113.736 44.7776 114.248 45.4591 114.248 45.4591C114.455 45.7341 114.424 46.1329 114.158 46.3537C113.681 46.7409 113.197 47.0352 112.705 47.2366C112.052 47.5038 111.275 47.6354 110.376 47.6354C108.813 47.6354 107.656 47.2056 106.906 46.3459C106.156 45.4862 105.781 44.1657 105.781 42.3844V28.2461C105.781 27.8782 106.082 27.5839 106.453 27.5839" fill="white"/>
<path d="M142.001 40.9864V36.0839C142.001 35.8438 141.896 35.6114 141.697 35.4798C141.364 35.259 140.974 35.0693 140.524 34.9105C139.927 34.6975 139.196 34.593 138.34 34.593C136.949 34.593 135.785 35.0809 134.855 36.0568C133.925 37.0326 133.456 38.3686 133.456 40.0686C133.456 41.0019 133.612 41.8616 133.921 42.6477C134.23 43.4338 134.707 44.0534 135.351 44.5103C135.992 44.9673 136.809 45.1958 137.793 45.1958C138.778 45.1958 139.606 44.9673 140.216 44.5103C140.825 44.0534 141.275 43.4958 141.564 42.8413C141.853 42.183 141.997 41.5673 141.997 40.9941M142.806 47.2327C142.408 47.2327 142.08 46.9229 142.06 46.5279L142.001 45.3545C141.853 45.5249 141.579 45.7999 141.181 46.1832C140.786 46.5666 140.255 46.9113 139.591 47.2172C138.926 47.5231 138.114 47.678 137.149 47.678C135.887 47.678 134.749 47.3643 133.745 46.737C132.737 46.1097 131.948 45.2267 131.37 44.0805C130.791 42.9342 130.502 41.5866 130.502 40.0377C130.502 38.6358 130.745 37.4315 131.225 36.4247C131.706 35.4178 132.335 34.593 133.105 33.9579C133.874 33.3228 134.707 32.8504 135.593 32.5406C136.48 32.2347 137.32 32.0798 138.114 32.0798C138.907 32.0798 139.63 32.1649 140.216 32.3353C140.806 32.5057 141.4 32.7381 141.997 33.0363V26.7435C141.997 26.333 142.333 26 142.748 26H144.143C144.557 26 144.889 26.333 144.889 26.7435L144.861 46.4814C144.861 46.8958 144.522 47.2327 144.103 47.2327H142.806Z" fill="white"/>
<path d="M51.1537 9.07373C52.0407 8.50061 53.0526 8.21405 54.1897 8.21405C55.2602 8.21405 56.1628 8.39993 56.9013 8.77168C57.4561 9.0505 57.9406 9.40289 58.3548 9.83274C58.7963 10.309 59.1167 10.0031 59.1167 10.0031L59.5035 9.71269C59.5035 9.71269 59.8356 9.40677 59.4371 8.99628C58.894 8.43478 58.2141 7.91587 57.5108 7.56348C56.6004 7.10653 55.4908 6.87805 54.1857 6.87805C52.7948 6.87805 51.5366 7.21883 50.4113 7.89651C49.286 8.57419 48.3991 9.49196 47.7466 10.6498C47.0941 11.8077 46.7659 13.1166 46.7659 14.5804C46.7659 15.2116 46.8401 15.8118 46.9612 16.3888C47.1175 17.1323 47.3676 17.8371 47.7271 18.4915C47.981 18.9562 48.2858 19.3745 48.6179 19.7578C48.7039 19.8585 49.5088 20.7027 50.4074 21.2642C51.521 21.9574 52.7909 22.2827 54.1818 22.2827C55.4869 22.2827 56.5965 22.0542 57.5069 21.5973C58.2102 21.2449 58.8901 20.726 59.4332 20.1644C59.8317 19.7578 59.4996 19.448 59.4996 19.448L59.1128 19.1576C59.1128 19.1576 58.7885 18.8517 58.3509 19.328C57.9367 19.754 57.4522 20.1102 56.8974 20.3891C56.1589 20.7608 55.2524 20.9467 54.1857 20.9467C53.0487 20.9467 52.0407 20.6601 51.1498 20.087C50.048 19.3745 49.3837 18.3212 49.079 17.748C48.5632 16.7838 48.3092 15.7266 48.3092 14.5804C48.3092 13.4341 48.5593 12.346 49.0633 11.3817C49.5674 10.4175 50.2629 9.64686 51.1498 9.07373" fill="white"/>
<path d="M73.8119 17.7945C73.2766 18.7704 72.5499 19.5449 71.6278 20.118C70.7056 20.6911 69.6702 20.9777 68.5137 20.9777C67.3571 20.9777 66.3764 20.6795 65.4465 20.087C64.5166 19.4945 63.7781 18.7123 63.2311 17.748C62.6841 16.7838 62.4105 15.7266 62.4105 14.5804C62.4105 13.4341 62.6762 12.315 63.2115 11.3507C63.7468 10.3865 64.4736 9.61588 65.3957 9.04275C66.3139 8.46963 67.3532 8.18307 68.5098 8.18307C69.6663 8.18307 70.6705 8.48125 71.5926 9.07373C72.5147 9.67009 73.2454 10.4485 73.7924 11.4127C74.3394 12.3769 74.609 13.4341 74.609 14.5804C74.609 15.7266 74.3433 16.8186 73.808 17.7945M72.3467 7.912C71.2019 7.2227 69.9203 6.87805 68.5098 6.87805C67.0992 6.87805 65.845 7.2227 64.6885 7.912C63.5319 8.60129 62.6098 9.53068 61.926 10.6963C61.2423 11.8658 60.8984 13.1592 60.8984 14.5804C60.8984 16.0016 61.2423 17.295 61.926 18.4644C62.6098 19.63 63.5319 20.5594 64.6885 21.2487C65.845 21.938 67.1188 22.2827 68.5098 22.2827C69.9007 22.2827 71.2019 21.938 72.3467 21.2487C73.4915 20.5594 74.4058 19.63 75.0935 18.4644C75.7773 17.2988 76.1211 16.0016 76.1211 14.5804C76.1211 13.1592 75.7773 11.8658 75.0935 10.6963C74.4097 9.53068 73.4915 8.60129 72.3467 7.912Z" fill="white"/>
<path d="M102.39 20.4779L102.155 20.2456C101.968 20.0597 101.647 20.0791 101.436 20.2843C101.436 20.2843 100.838 20.9891 99.5529 20.9775C99.0411 20.9775 98.5839 20.8923 98.1893 20.7219C97.7947 20.5515 97.4782 20.1875 97.2398 19.6221C97.0054 19.0606 96.8882 18.2048 96.8882 17.0585V8.59335H99.0684H101.229C101.526 8.59335 101.764 8.37262 101.764 8.09768V7.75303C101.764 7.47808 101.526 7.25735 101.229 7.25735H96.8882V3.9464V2.95118C96.8882 2.65687 96.6498 2.42065 96.3529 2.42065H95.9817C95.6848 2.42065 95.4464 2.65687 95.4464 2.95118V17.4109C95.4464 18.7043 95.6105 19.7034 95.9426 20.4043C96.2748 21.1053 96.7397 21.5932 97.3414 21.8681C97.9392 22.1431 98.6269 22.2825 99.3966 22.2825C101.319 22.3173 102.354 21.1866 102.354 21.1866C102.565 20.9775 102.581 20.6599 102.394 20.474" fill="white"/>
<path d="M115.014 16.4895C115.014 17.233 114.772 17.9494 114.291 18.6387C113.81 19.328 113.174 19.8895 112.38 20.3271C111.587 20.7608 110.7 20.9777 109.716 20.9777C108.602 20.9777 107.688 20.7337 106.969 20.2458C106.25 19.7578 105.894 18.9833 105.894 17.9223C105.894 17.5622 105.941 17.1594 106.039 16.7141C106.137 16.2688 106.348 15.8428 106.68 15.4401C107.012 15.0373 107.5 14.7043 108.141 14.4371C108.786 14.1738 109.649 14.0382 110.743 14.0382C111.837 14.0382 112.654 14.0769 113.33 14.1505C114.006 14.2241 114.565 14.3132 115.014 14.4216V16.4895ZM110.454 6.87805C109.333 6.87805 108.364 7.04457 107.535 7.35824L107.528 7.35049L107.36 7.42794C107.285 7.45892 107.203 7.48215 107.129 7.51701C106.981 7.58671 106.852 7.65254 106.715 7.72225L106.629 7.76097L106.574 7.79195C106.367 7.90038 106.176 8.00494 106.004 8.10949L105.605 8.33022C105.355 8.48899 105.297 8.82977 105.445 9.06212L105.574 9.27897C105.722 9.51132 106.047 9.56941 106.297 9.41064L106.66 9.2054C106.93 9.04275 107.231 8.88011 107.578 8.70972C108.293 8.3612 109.262 8.18307 110.485 8.18307C111.943 8.18307 113.056 8.46963 113.826 9.04275C114.596 9.61588 114.983 10.7079 114.983 12.3227V13.1514C114.49 13.0662 113.889 12.9927 113.185 12.9268C112.478 12.8649 111.677 12.83 110.778 12.83C109.235 12.83 107.996 13.0585 107.055 13.5154C106.113 13.9724 105.425 14.5804 105 15.3471C104.57 16.11 104.359 16.9697 104.359 17.9262C104.359 19.0724 104.621 19.9631 105.144 20.5982C105.668 21.2332 106.332 21.6747 107.137 21.9187C107.938 22.1626 108.747 22.2866 109.563 22.2866C110.118 22.2866 110.731 22.2052 111.396 22.0465C112.06 21.8877 112.712 21.6011 113.353 21.1868C113.99 20.7763 114.565 20.2032 115.072 19.4713V21.3688C115.072 21.6631 115.299 21.8993 115.576 21.8993H115.928C116.209 21.8993 116.432 21.6631 116.432 21.3688V12.0981C116.432 10.2316 115.913 8.8956 114.873 8.08626C113.834 7.28079 112.365 6.87805 110.458 6.87805H110.454Z" fill="white"/>
<path d="M177.995 16.4895C177.995 17.233 177.753 17.9494 177.272 18.6387C176.791 19.328 176.155 19.8895 175.361 20.3271C174.568 20.7608 173.681 20.9777 172.697 20.9777C171.583 20.9777 170.669 20.7337 169.95 20.2458C169.231 19.7578 168.875 18.9833 168.875 17.9223C168.875 17.5622 168.922 17.1594 169.02 16.7141C169.118 16.2688 169.329 15.8428 169.661 15.4401C169.993 15.0373 170.481 14.7043 171.122 14.4371C171.763 14.1738 172.63 14.0382 173.724 14.0382C174.818 14.0382 175.635 14.0769 176.311 14.1505C176.987 14.2241 177.546 14.3132 177.995 14.4216V16.4895ZM173.435 6.87805C172.314 6.87805 171.345 7.04457 170.516 7.35824L170.509 7.35049L170.341 7.42794C170.266 7.45892 170.184 7.48215 170.11 7.51701C169.962 7.58671 169.833 7.65254 169.7 7.72225L169.614 7.76097L169.559 7.79195C169.352 7.90038 169.161 8.00494 168.989 8.10949L168.59 8.33022C168.34 8.48899 168.281 8.82977 168.43 9.06212L168.559 9.27897C168.707 9.51132 169.032 9.56941 169.282 9.41064L169.645 9.2054C169.915 9.04275 170.216 8.88011 170.563 8.70972C171.282 8.3612 172.247 8.18307 173.47 8.18307C174.928 8.18307 176.041 8.46963 176.811 9.04275C177.581 9.61588 177.968 10.7079 177.968 12.3227V13.1514C177.475 13.0662 176.877 12.9927 176.17 12.9268C175.463 12.8649 174.662 12.83 173.763 12.83C172.22 12.83 170.981 13.0585 170.04 13.5154C169.098 13.9724 168.41 14.5804 167.985 15.3471C167.555 16.11 167.344 16.9697 167.344 17.9262C167.344 19.0724 167.606 19.9631 168.129 20.5982C168.653 21.2332 169.317 21.6747 170.122 21.9187C170.927 22.1626 171.732 22.2866 172.548 22.2866C173.103 22.2866 173.716 22.2052 174.381 22.0465C175.045 21.8877 175.697 21.6011 176.338 21.1868C176.975 20.7763 177.549 20.2032 178.057 19.4713V21.3688C178.057 21.6631 178.284 21.8993 178.561 21.8993H178.913C179.194 21.8993 179.417 21.6631 179.417 21.3688V12.0981C179.417 10.2316 178.898 8.8956 177.858 8.08626C176.819 7.28079 175.346 6.87805 173.443 6.87805H173.435Z" fill="white"/>
<path d="M130.834 18.0965C130.256 19.0413 129.471 19.7539 128.474 20.2302C127.478 20.7065 126.349 20.9466 125.087 20.9466C124.708 20.9466 124.36 20.9388 124.04 20.9195C122.996 20.8265 122.067 20.6213 121.539 20.4858C121.301 20.4238 121.137 20.2108 121.137 19.963V14.1001C121.137 13.4844 121.242 12.8377 121.457 12.16C121.672 11.4823 121.996 10.8434 122.438 10.2509C122.875 9.65838 123.426 9.17432 124.09 8.80257C124.755 8.43081 125.536 8.24493 126.435 8.24493C127.72 8.24493 128.748 8.5315 129.518 9.10462C130.287 9.67774 130.846 10.4484 131.186 11.4126C131.53 12.3768 131.698 13.434 131.698 14.5803C131.698 15.9821 131.409 17.1516 130.83 18.0965M130.35 7.89641C129.365 7.21873 128.111 6.87796 126.591 6.87796C125.521 6.87796 124.634 7.0406 123.926 7.36976C123.219 7.69892 122.653 8.09004 122.223 8.54699C121.793 9.00394 121.441 9.4454 121.164 9.86749V1.20094C121.164 0.90663 120.926 0.67041 120.629 0.67041H120.257C119.961 0.67041 119.722 0.90663 119.722 1.20094V20.7801C119.722 21.148 119.957 21.4694 120.308 21.5855C120.789 21.7443 121.367 21.8876 122.031 22.0115C122.996 22.1935 124.001 22.2826 125.052 22.2826C126.595 22.2826 127.978 21.9844 129.209 21.3919C130.44 20.7994 131.42 19.9281 132.147 18.7819C132.874 17.6356 133.237 16.2454 133.237 14.6113C133.237 13.1475 133.003 11.8308 132.53 10.6652C132.061 9.49961 131.331 8.57409 130.346 7.89641H130.35Z" fill="white"/>
<path d="M211.234 13.7207H200.462C200.524 12.7022 200.794 11.7806 201.263 10.9519C201.731 10.1232 202.372 9.46098 203.173 8.96143C203.978 8.46189 204.904 8.21405 205.951 8.21405C207.471 8.21405 208.718 8.68649 209.694 9.63137C210.628 10.5375 211.203 11.8309 211.418 13.5077C211.433 13.6161 211.343 13.7207 211.23 13.7207M212.101 10.522C211.492 9.32157 210.652 8.41542 209.581 7.7997C208.511 7.18398 207.303 6.87805 205.951 6.87805C204.599 6.87805 203.322 7.2227 202.243 7.912C201.161 8.60129 200.321 9.53068 199.723 10.6963C199.121 11.8658 198.824 13.1592 198.824 14.5804C198.824 16.0868 199.145 17.4227 199.79 18.5922C200.43 19.7617 201.325 20.6679 202.47 21.3146C203.615 21.9613 204.916 22.2866 206.373 22.2866C207.53 22.2866 208.659 22.0542 209.761 21.5856C210.667 21.2023 211.418 20.7105 212.015 20.1102C212.406 19.7385 212.047 19.4287 212.047 19.4287L211.714 19.1499C211.714 19.1499 211.375 18.871 210.988 19.2544C210.527 19.7036 209.925 20.0793 209.183 20.3736C208.229 20.7569 207.291 20.9467 206.373 20.9467C205.217 20.9467 204.201 20.6756 203.322 20.1335C202.443 19.5913 201.751 18.871 201.251 17.9688C200.747 17.0665 200.473 16.0635 200.434 14.9599H212.301C212.695 14.9599 213.027 14.6307 213.008 14.2396C212.934 12.7913 212.637 11.5521 212.109 10.5182L212.101 10.522Z" fill="white"/>
<path d="M86.19 6.79681C85.0765 6.79681 84.1348 6.99431 83.3651 7.38543C82.5954 7.77655 81.9741 8.24124 81.5013 8.77177C81.0286 9.30229 80.6769 9.79022 80.4425 10.2356C80.4425 9.77473 80.4386 7.70684 80.4386 7.70684C80.4386 7.41253 80.2002 7.17631 79.9033 7.17631H79.6493C79.3524 7.17631 79.114 7.41253 79.114 7.70684V21.2914C79.114 21.5857 79.3524 21.8219 79.6493 21.8219H79.9736C80.2706 21.8219 80.5089 21.5857 80.5089 21.2914V14.2784C80.5089 13.3451 80.7082 12.4041 81.1028 11.4593C81.4974 10.5144 82.1031 9.72439 82.9158 9.08931C83.7285 8.45423 84.7561 8.13281 85.9986 8.13281C86.9402 8.13281 87.7373 8.29158 88.3898 8.60912C89.0423 8.92667 89.5425 9.48817 89.8824 10.2975C90.2262 11.103 90.3982 12.2376 90.3982 13.7053V21.2914C90.3982 21.5857 90.6365 21.8219 90.9335 21.8219H91.3046C91.6016 21.8219 91.8399 21.5857 91.8399 21.2914V13.229C91.8399 11.254 91.4219 9.68954 90.5896 8.53555C89.7535 7.38155 88.2882 6.80069 86.19 6.80069" fill="white"/>
<path d="M162.659 17.6667C162.444 18.1972 162.12 18.7123 161.678 19.2118C161.241 19.7114 160.686 20.1257 160.025 20.4549C159.361 20.784 158.58 20.9467 157.681 20.9467C156.419 20.9467 155.395 20.6563 154.614 20.0715C153.832 19.4868 153.27 18.7239 152.926 17.779C152.582 16.8341 152.414 15.8196 152.414 14.7391C152.414 13.1902 152.703 11.9394 153.281 10.9829C153.86 10.0264 154.614 9.32932 155.544 8.88398C156.474 8.43865 157.443 8.21405 158.451 8.21405C159.201 8.21405 159.865 8.29924 160.444 8.46963C161.022 8.64002 161.491 8.82977 161.858 9.04276C162.073 9.15118 162.276 9.27123 162.467 9.41064C162.659 9.55005 162.831 9.69333 162.983 9.84048V16.2378C162.983 16.6638 162.874 17.1401 162.663 17.6706M164.398 1.46823V1.2049C164.398 0.910597 164.163 0.674377 163.874 0.674377H163.511C163.222 0.674377 162.987 0.910597 162.987 1.2049V8.27988C162.538 8.00494 162.088 7.77259 161.639 7.57897C161.209 7.40858 160.733 7.24981 160.209 7.10265C159.685 6.9555 159.111 6.87805 158.49 6.87805C157.013 6.87805 155.7 7.20334 154.555 7.85004C153.41 8.49674 152.512 9.40677 151.859 10.5724C151.207 11.738 150.879 13.1205 150.879 14.712C150.879 16.1139 151.121 17.384 151.601 18.5303C152.082 19.6765 152.817 20.5904 153.801 21.2681C154.786 21.9458 156.028 22.2866 157.529 22.2866C158.494 22.2866 159.314 22.1317 160.002 21.8257C160.686 21.5198 161.256 21.1829 161.706 20.8228C161.983 20.6098 162.229 20.3813 162.444 20.1373C162.659 19.8934 162.839 19.6339 162.991 19.359V21.3649C162.991 21.6592 163.225 21.8954 163.515 21.8954H163.878C164.167 21.8954 164.402 21.6592 164.402 21.3649V19.2234V15.4401V1.46436L164.398 1.46823Z" fill="white"/>
<path d="M194.144 17.6667C193.929 18.1972 193.604 18.7123 193.163 19.2118C192.725 19.7114 192.17 20.1257 191.51 20.4549C190.846 20.784 190.064 20.9467 189.166 20.9467C187.904 20.9467 186.88 20.6563 186.099 20.0715C185.317 19.4868 184.755 18.7239 184.411 17.779C184.067 16.8341 183.895 15.8196 183.895 14.7391C183.895 13.1902 184.184 11.9394 184.762 10.9829C185.341 10.0264 186.095 9.32932 187.025 8.88398C187.955 8.43865 188.924 8.21405 189.932 8.21405C190.682 8.21405 191.346 8.29924 191.924 8.46963C192.503 8.64002 192.971 8.82977 193.339 9.04276C193.554 9.15118 193.757 9.27123 193.948 9.41064C194.14 9.55005 194.312 9.69333 194.464 9.84048V16.2378C194.464 16.6638 194.355 17.1401 194.144 17.6706M195.878 1.46823V1.2049C195.878 0.910597 195.644 0.674377 195.355 0.674377H194.992C194.702 0.674377 194.468 0.910597 194.468 1.2049V8.27988C194.019 8.00494 193.569 7.77259 193.12 7.57897C192.69 7.40858 192.213 7.24981 191.69 7.10265C191.166 6.9555 190.592 6.87805 189.971 6.87805C188.494 6.87805 187.181 7.20334 186.036 7.85004C184.891 8.49674 183.993 9.40677 183.34 10.5724C182.688 11.738 182.359 13.1205 182.359 14.712C182.359 16.1139 182.602 17.384 183.082 18.5303C183.563 19.6765 184.297 20.5904 185.282 21.2681C186.267 21.9458 187.509 22.2866 189.01 22.2866C189.975 22.2866 190.795 22.1317 191.483 21.8257C192.167 21.5198 192.737 21.1829 193.186 20.8228C193.464 20.6098 193.71 20.3813 193.925 20.1373C194.14 19.8934 194.319 19.6339 194.472 19.359V21.3649C194.472 21.6592 194.706 21.8954 194.995 21.8954H195.359C195.648 21.8954 195.882 21.6592 195.882 21.3649V19.2234V15.4401V1.46436L195.878 1.46823Z" fill="white"/>
<path d="M136.683 5.32895H137.156C137.41 5.32895 137.613 5.12758 137.613 4.87587V4.4073C137.613 4.15559 137.41 3.95422 137.156 3.95422H136.683C136.43 3.95422 136.226 4.15559 136.226 4.4073V4.87587C136.226 5.12758 136.43 5.32895 136.683 5.32895Z" fill="white"/>
<path d="M147.432 3.95819H146.96C146.706 3.95819 146.502 4.16343 146.502 4.41127V4.87984C146.502 5.13155 146.706 5.33291 146.96 5.33291H147.432C147.686 5.33291 147.89 5.13155 147.89 4.87984V4.41127C147.89 4.15956 147.686 3.95819 147.432 3.95819Z" fill="white"/>
<path d="M137.172 7.25732H136.664C136.406 7.25732 136.195 7.46644 136.195 7.72202V21.4344C136.195 21.69 136.406 21.8991 136.664 21.8991H137.172C137.43 21.8991 137.641 21.69 137.641 21.4344V7.72202C137.641 7.46644 137.43 7.25732 137.172 7.25732Z" fill="white"/>
<path d="M142.31 0.67041H141.802C141.544 0.67041 141.333 0.879523 141.333 1.1351V21.4345C141.333 21.6901 141.544 21.8992 141.802 21.8992H142.31C142.568 21.8992 142.779 21.6901 142.779 21.4345V1.1351C142.779 0.879523 142.568 0.67041 142.31 0.67041Z" fill="white"/>
<path d="M147.421 7.25732H146.913C146.655 7.25732 146.444 7.46644 146.444 7.72202V21.4344C146.444 21.69 146.655 21.8991 146.913 21.8991H147.421C147.679 21.8991 147.89 21.69 147.89 21.4344V7.72202C147.89 7.46644 147.679 7.25732 147.421 7.25732Z" fill="white"/>
</g>
<defs>
<clipPath id="clip0_29_1784">
<rect width="213" height="47" fill="white" transform="translate(0 0.67041)"/>
</clipPath>
</defs>
</svg>
