<svg width="20" height="20" viewBox="0 0 20 20" fill="none" xmlns="http://www.w3.org/2000/svg">
<path d="M13.3333 1.66669V5.00002" stroke="#5D6D88" stroke-width="1.5" stroke-linecap="round" stroke-linejoin="round"/>
<path d="M6.66667 1.66669V5.00002" stroke="#5D6D88" stroke-width="1.5" stroke-linecap="round" stroke-linejoin="round"/>
<path d="M2.5 7.49998H17.5" stroke="#5D6D88" stroke-width="1.5" stroke-linecap="round" stroke-linejoin="round"/>
<path fill-rule="evenodd" clip-rule="evenodd" d="M15.8333 3.33331H4.16667C3.24583 3.33331 2.5 4.07915 2.5 4.99998V15.8333C2.5 16.7541 3.24583 17.5 4.16667 17.5H15.8333C16.7542 17.5 17.5 16.7541 17.5 15.8333V4.99998C17.5 4.07915 16.7542 3.33331 15.8333 3.33331Z" stroke="#5D6D88" stroke-width="1.5" stroke-linecap="round" stroke-linejoin="round"/>
<path d="M5.84418 10.6075C5.72918 10.6075 5.63585 10.7008 5.63668 10.8158C5.63668 10.9308 5.73001 11.0242 5.84501 11.0242C5.96001 11.0242 6.05335 10.9308 6.05335 10.8158C6.05335 10.7008 5.96001 10.6075 5.84418 10.6075" stroke="#5D6D88" stroke-width="1.5" stroke-linecap="round" stroke-linejoin="round"/>
<path d="M10.0108 10.6075C9.89581 10.6075 9.80247 10.7008 9.80331 10.8158C9.80331 10.9308 9.89664 11.0242 10.0116 11.0242C10.1266 11.0242 10.22 10.9308 10.22 10.8158C10.22 10.7008 10.1266 10.6075 10.0108 10.6075" stroke="#5D6D88" stroke-width="1.5" stroke-linecap="round" stroke-linejoin="round"/>
<path d="M14.1776 10.6075C14.0626 10.6075 13.9692 10.7008 13.9701 10.8158C13.9701 10.9308 14.0634 11.0242 14.1784 11.0242C14.2934 11.0242 14.3867 10.9308 14.3867 10.8158C14.3867 10.7008 14.2934 10.6075 14.1776 10.6075" stroke="#5D6D88" stroke-width="1.5" stroke-linecap="round" stroke-linejoin="round"/>
<path d="M5.84418 13.9408C5.72918 13.9408 5.63585 14.0341 5.63668 14.1491C5.63668 14.2641 5.73001 14.3575 5.84501 14.3575C5.96001 14.3575 6.05335 14.2641 6.05335 14.1491C6.05335 14.0341 5.96001 13.9408 5.84418 13.9408" stroke="#5D6D88" stroke-width="1.5" stroke-linecap="round" stroke-linejoin="round"/>
<path d="M10.0108 13.9408C9.89581 13.9408 9.80247 14.0341 9.80331 14.1491C9.80331 14.2641 9.89664 14.3575 10.0116 14.3575C10.1266 14.3575 10.22 14.2641 10.22 14.1491C10.22 14.0341 10.1266 13.9408 10.0108 13.9408" stroke="#5D6D88" stroke-width="1.5" stroke-linecap="round" stroke-linejoin="round"/>
</svg>
