<svg width="19" height="20" viewBox="0 0 19 20" fill="none" xmlns="http://www.w3.org/2000/svg">
<path d="M18.6334 18.1449L14.1349 13.6473C15.4387 12.082 16.0889 10.0742 15.9501 8.04172C15.8113 6.00922 14.8943 4.10847 13.3898 2.73486C11.8853 1.36126 9.90921 0.620553 7.8725 0.666841C5.8358 0.713128 3.89535 1.54284 2.45481 2.98338C1.01428 4.42392 0.184564 6.36437 0.138276 8.40107C0.0919888 10.4378 0.832691 12.4139 2.2063 13.9184C3.5799 15.4229 5.48066 16.3399 7.51315 16.4787C9.54565 16.6174 11.5534 15.9673 13.1187 14.6634L17.6163 19.1619C17.6831 19.2287 17.7624 19.2817 17.8496 19.3178C17.9369 19.354 18.0304 19.3726 18.1248 19.3726C18.2193 19.3726 18.3128 19.354 18.4 19.3178C18.4873 19.2817 18.5666 19.2287 18.6334 19.1619C18.7001 19.0951 18.7531 19.0159 18.7892 18.9286C18.8254 18.8414 18.844 18.7478 18.844 18.6534C18.844 18.559 18.8254 18.4654 18.7892 18.3782C18.7531 18.2909 18.7001 18.2117 18.6334 18.1449ZM1.59359 8.5909C1.59359 7.31151 1.97297 6.06084 2.68377 4.99706C3.39457 3.93328 4.40485 3.10416 5.58686 2.61456C6.76886 2.12495 8.06951 1.99685 9.32433 2.24645C10.5791 2.49605 11.7318 3.11214 12.6364 4.01681C13.5411 4.92148 14.1572 6.0741 14.4068 7.32891C14.6564 8.58373 14.5283 9.88438 14.0387 11.0664C13.5491 12.2484 12.72 13.2587 11.6562 13.9695C10.5924 14.6803 9.34174 15.0597 8.06234 15.0597C6.3473 15.0578 4.70306 14.3756 3.49034 13.1629C2.27763 11.9502 1.59549 10.3059 1.59359 8.5909Z" fill="#F47D34"/>
</svg>
