<svg width="32" height="32" viewBox="0 0 32 32" fill="none" xmlns="http://www.w3.org/2000/svg">
<path d="M2.66602 25.3333C2.66602 22.4 5.06602 20 7.99935 20H13.3327C16.266 20 18.666 22.4 18.666 25.3333" stroke="#FF9933" stroke-width="1.5" stroke-linecap="round" stroke-linejoin="round"/>
<path d="M13.9996 8.00012C15.8662 9.86679 15.8662 12.8001 13.9996 14.5335C12.1329 16.2668 9.19958 16.4001 7.46624 14.5335C5.73291 12.6668 5.59958 9.86679 7.33291 8.00012C9.06624 6.13345 12.1329 6.26679 13.9996 8.00012" stroke="#FF9933" stroke-width="1.5" stroke-linecap="round" stroke-linejoin="round"/>
<path d="M21.332 18.6667H25.332C27.5987 18.6667 29.332 20.4001 29.332 22.6667" stroke="#FF9933" stroke-width="1.5" stroke-linecap="round" stroke-linejoin="round"/>
<path d="M25.7326 8.93345C27.0659 10.2668 27.0659 12.4001 25.7326 13.6001C24.3992 14.8001 22.2659 14.9334 21.0659 13.6001C19.8659 12.2668 19.7326 10.1334 21.0659 8.93345C22.2659 7.73345 24.3992 7.73345 25.7326 8.93345" stroke="#FF9933" stroke-width="1.5" stroke-linecap="round" stroke-linejoin="round"/>
</svg>
