<svg width="21" height="21" viewBox="0 0 21 21" fill="none" xmlns="http://www.w3.org/2000/svg">
<path d="M20.3846 8.40741C19.4057 8.40637 18.4671 8.00802 17.7749 7.29977C17.0827 6.59153 16.6933 5.63124 16.6923 4.62963C16.6923 4.46264 16.6275 4.30249 16.5121 4.18441C16.3967 4.06634 16.2401 4 16.0769 4H13C12.8368 4 12.6803 4.06634 12.5649 4.18441C12.4495 4.30249 12.3846 4.46264 12.3846 4.62963V15.0185C12.3845 15.3002 12.3105 15.5767 12.1704 15.8191C12.0302 16.0615 11.8291 16.2611 11.5879 16.3969C11.3467 16.5327 11.0743 16.5997 10.7991 16.5911C10.524 16.5825 10.2561 16.4985 10.0235 16.3479C9.79084 16.1973 9.60197 15.9856 9.47657 15.7348C9.35117 15.4841 9.29383 15.2035 9.31052 14.9223C9.32722 14.6412 9.41735 14.3698 9.5715 14.1364C9.72565 13.903 9.93818 13.7162 10.1869 13.5956C10.2921 13.5445 10.381 13.4639 10.4433 13.3631C10.5055 13.2624 10.5385 13.1457 10.5385 13.0265V9.66667C10.5385 9.57463 10.5188 9.4837 10.4808 9.40029C10.4428 9.31688 10.3874 9.24301 10.3184 9.18388C10.2495 9.12475 10.1687 9.08181 10.0818 9.05807C9.99489 9.03433 9.90395 9.03038 9.81538 9.04648C7.07 9.54704 5 12.1144 5 15.0185C5 16.6049 5.61593 18.1263 6.7123 19.2481C7.80867 20.3698 9.29566 21 10.8462 21C12.3967 21 13.8836 20.3698 14.98 19.2481C16.0764 18.1263 16.6923 16.6049 16.6923 15.0185V11.8932C17.832 12.5016 19.0991 12.8179 20.3846 12.8148C20.5478 12.8148 20.7044 12.7485 20.8198 12.6304C20.9352 12.5123 21 12.3522 21 12.1852V9.03704C21 8.87005 20.9352 8.7099 20.8198 8.59182C20.7044 8.47374 20.5478 8.40741 20.3846 8.40741ZM19.7692 11.5272C18.5666 11.4182 17.4151 10.9791 16.4362 10.2562C16.3441 10.1885 16.2356 10.1481 16.1226 10.1395C16.0096 10.1309 15.8965 10.1544 15.7957 10.2073C15.6949 10.2603 15.6103 10.3408 15.5514 10.4398C15.4924 10.5388 15.4613 10.6526 15.4615 10.7685V15.0185C15.4615 16.2709 14.9753 17.472 14.1097 18.3576C13.2442 19.2432 12.0702 19.7407 10.8462 19.7407C9.62208 19.7407 8.44814 19.2432 7.58258 18.3576C6.71703 17.472 6.23077 16.2709 6.23077 15.0185C6.23077 12.9801 7.51077 11.1518 9.30769 10.4852V12.6629C8.90988 12.9349 8.58773 13.3076 8.37262 13.7449C8.1575 14.1821 8.05678 14.6689 8.08026 15.1578C8.10374 15.6467 8.25062 16.1211 8.50659 16.5347C8.76256 16.9482 9.11889 17.2869 9.54084 17.5176C9.96279 17.7483 10.436 17.8633 10.9143 17.8513C11.3925 17.8392 11.8596 17.7006 12.27 17.4489C12.6803 17.1972 13.0199 16.8411 13.2557 16.4151C13.4915 15.9892 13.6154 15.508 13.6154 15.0185V5.25926H15.5C15.6384 6.36826 16.1327 7.39888 16.9054 8.18942C17.678 8.97997 18.6853 9.48572 19.7692 9.62731V11.5272Z" fill="#F47D34"/>
</svg>
