<?xml version="1.0" encoding="UTF-8"?> <svg xmlns="http://www.w3.org/2000/svg" width="181" height="40" viewBox="0 0 181 40" fill="none"><g clip-path="url(#a)"><path fill-rule="evenodd" clip-rule="evenodd" d="M28.013 25.601c-.05.149-.086.323-.13.472a10.826 10.826 0 0 1-1.354 2.887 8.08 8.08 0 0 1-.787 1.031c-.047.053-.093.112-.14.165l-.441.468c-.09.089-.359.35-.472.438-.166.132-.322.274-.491.406a10.754 10.754 0 0 1-3.148 1.7c-1.507.52-2.696.57-4.293.567-1.427 0-2.875-.313-4.044-.81-.956-.406-1.889-.94-2.666-1.59a11.784 11.784 0 0 1-.64-.56c-.23-.237-.542-.527-.738-.78-.133-.172-.279-.324-.408-.502-.256-.359-.502-.692-.724-1.08a10.636 10.636 0 0 1-1.292-3.543 10.546 10.546 0 0 1 1.687-7.693c.355-.514.684-.896 1.082-1.344.05-.056.1-.096.153-.152l.462-.448c.428-.376.88-.735 1.371-1.045.236-.148.501-.316.764-.451a12.008 12.008 0 0 1 1.696-.725c.624-.208 1.292-.36 1.986-.449.783-.099 1.54-.085 2.337-.085h14.593c-.033-.06-.07-.1-.11-.149a10.668 10.668 0 0 0-.551-.675l-.946-1.028-1.554-1.404c-.966-.805-2.148-1.563-3.267-2.14a19.287 19.287 0 0 0-2.773-1.166c-.415-.135-1.932-.597-2.37-.597h-.977c-1.165 0-2.775-.033-3.894.06a17.222 17.222 0 0 0-3.334.606c-1.009.29-1.915.66-2.848 1.091-.23.106-.432.224-.651.336-.535.274-1.328.768-1.823 1.137-.485.363-1.006.735-1.444 1.15-.024.024-.043.037-.07.056l-1.109 1.091c-.143.129-.432.482-.584.656-.037.04-.073.09-.11.132a16.838 16.838 0 0 0-2.135 3.26C-.126 18.732-.618 23.495.866 27.92c.167.492.346.963.548 1.424.386.883.86 1.773 1.382 2.56a18.326 18.326 0 0 0 2.198 2.72c.136.135.597.587.753.712.03.023.037.036.063.062.024.023.044.037.07.056l.668.56c.351.284.733.558 1.135.828 3.207 2.165 7.76 3.546 12.577 2.702 1.677-.293 3.025-.741 4.512-1.417.661-.3 1.285-.675 1.903-1.048.408-.247.787-.52 1.165-.807.183-.139.369-.28.545-.429l.269-.224c.186-.145.352-.313.524-.461.05-.043.08-.083.127-.126.385-.346.72-.718 1.085-1.113.077-.086.15-.175.23-.264.5-.554 1.039-1.351 1.457-1.98.259-.39.488-.821.72-1.253.963-1.793 1.6-3.968 1.827-6.028.033-.303.056-.603.073-.91.016-.267.046-.692.023-.949-.06.033-.19.158-.252.218-.03.03-.054.04-.084.069a9.752 9.752 0 0 1-1.029.79c-1.474 1.032-3.51 1.827-5.342 1.998" fill="#F49739"></path><path fill-rule="evenodd" clip-rule="evenodd" d="M21.233 16.485h-5.014v14.214l.72.037c1.037.023 2.033-.086 2.973-.4 1.095-.365 1.816-.902 1.895-.932V22.2c.093-.023 5.788-.01 6.408-.007.26 0 1.136-.283 1.375-.372.591-.215 1.04-.455 1.564-.768a8.59 8.59 0 0 0 1.01-.738l.228-.201a8.654 8.654 0 0 0 1.624-2.017c.14-.234.7-1.335.704-1.629-4.506 0-8.982.014-13.487.014M34.72 12.112v-6.79h-7.607l.575.323c.587.33 1.099.673 1.65 1.045.338.23.953.692 1.275.966.083.07.169.132.249.208l.299.257c.023.02.04.03.063.052.053.05.08.066.12.106l.693.646c.04.04.07.085.11.118.14.122.627.633.77.798l.212.24c.113.146.293.33.416.485.278.36.5.61.783 1.012l.365.51c.024.024-.006 0 .027.024z" fill="#F49739"></path><path d="M79.268 38.935V22.24c0-.379.308-.685.69-.685h1.073c.381 0 .69.306.69.686v16.695a.687.687 0 0 1-.69.686h-1.073a.688.688 0 0 1-.69-.686zM40.407 25.997c0-1.137.21-2.067.628-2.792.418-.722.963-1.256 1.637-1.598a4.684 4.684 0 0 1 2.155-.514c.674 0 1.331.105 1.979.31.508.164.986.418 1.43.764.206.161.23.468.07.672l-.647.828c-.163.207-.455.237-.678.088-.56-.369-1.152-.553-1.773-.553-.71 0-1.278.227-1.706.675-.428.452-.641 1.23-.641 2.33v.356s-.02.459.472.459h2.669c.269 0 .488.217.488.484v1.061c0 .267-.22.485-.488.485h-2.653a.487.487 0 0 0-.488.484v9.594c0 .267-.22.484-.488.484h-1.478a.487.487 0 0 1-.488-.484V25.99v.007zM56.139 35.096v-.883a.637.637 0 0 0-.571-.63 39.404 39.404 0 0 0-1.162-.102 18.39 18.39 0 0 0-1.186-.04c-.91 0-1.607.133-2.088.393-.481.263-.81.586-.983.975a2.815 2.815 0 0 0-.259 1.15c0 .67.236 1.184.71 1.546.472.363 1.13.54 1.966.54.638 0 1.222-.141 1.76-.418a3.81 3.81 0 0 0 1.312-1.097c.335-.452.504-.93.504-1.437m.644 4.525a.58.58 0 0 1-.58-.557l-.034-.96c-.455.614-1.08 1.082-1.87 1.395a6.38 6.38 0 0 1-2.386.474c-.691 0-1.378-.128-2.062-.379a3.75 3.75 0 0 1-1.69-1.245c-.445-.577-.668-1.345-.668-2.304 0-1.355.482-2.439 1.448-3.25.963-.814 2.337-1.219 4.12-1.219.399 0 .814.013 1.242.04.428.026.814.052 1.159.082.79.066.677-.66.664-.785-.07-.738-.352-1.278-.84-1.628-.575-.405-1.352-.61-2.334-.61-.983 0-1.707.133-2.278.393-.368.168-.7.34-.99.514a.578.578 0 0 1-.763-.175l-.498-.718a.576.576 0 0 1 .17-.82c.381-.241.843-.475 1.384-.71.8-.342 1.882-.513 3.247-.513 1.62 0 2.902.392 3.848 1.18.946.784 1.418 1.901 1.418 3.345l.026 7.873a.58.58 0 0 1-.58.58h-1.146l-.007-.003zM106.683 35.096v-.883a.637.637 0 0 0-.571-.63 39.584 39.584 0 0 0-1.162-.102 18.51 18.51 0 0 0-1.189-.04c-.91 0-1.607.133-2.088.393-.482.263-.81.586-.983.975a2.81 2.81 0 0 0-.259 1.15c0 .67.236 1.184.71 1.546.472.363 1.129.54 1.966.54.638 0 1.222-.141 1.76-.418a3.76 3.76 0 0 0 1.308-1.097c.335-.452.505-.93.505-1.437m.644 4.525a.58.58 0 0 1-.581-.557l-.033-.96c-.455.614-1.08 1.082-1.87 1.395a6.38 6.38 0 0 1-2.387.474 5.962 5.962 0 0 1-2.062-.379 3.75 3.75 0 0 1-1.69-1.245c-.445-.577-.667-1.345-.667-2.304 0-1.355.481-2.439 1.447-3.25.963-.814 2.338-1.219 4.121-1.219.398 0 .813.013 1.242.04.428.026.813.052 1.158.082.791.066.678-.66.664-.785-.069-.738-.352-1.278-.84-1.628-.574-.405-1.351-.61-2.334-.61-.983 0-1.706.133-2.278.393-.368.168-.7.34-.989.514a.578.578 0 0 1-.764-.175l-.498-.718a.576.576 0 0 1 .17-.82c.382-.241.846-.475 1.384-.71.8-.342 1.883-.513 3.247-.513 1.621 0 2.902.392 3.849 1.18.946.784 1.417 1.901 1.417 3.345l.027 7.873a.58.58 0 0 1-.581.58h-1.146l-.006-.003zM133.617 35.096v-.883a.637.637 0 0 0-.571-.63 39.584 39.584 0 0 0-1.162-.102 18.51 18.51 0 0 0-1.189-.04c-.91 0-1.607.133-2.089.393-.481.263-.81.586-.982.975a2.81 2.81 0 0 0-.259 1.15c0 .67.235 1.184.71 1.546.472.363 1.129.54 1.966.54a3.817 3.817 0 0 0 3.071-1.516c.335-.45.505-.929.505-1.436m.644 4.525a.58.58 0 0 1-.581-.557l-.033-.96c-.455.614-1.079 1.082-1.87 1.395a6.38 6.38 0 0 1-2.387.474 5.962 5.962 0 0 1-2.062-.379 3.754 3.754 0 0 1-1.69-1.245c-.445-.577-.667-1.345-.667-2.304 0-1.355.481-2.439 1.447-3.25.963-.814 2.338-1.219 4.121-1.219.398 0 .813.013 1.242.04.428.026.813.052 1.158.082.791.066.678-.66.664-.785-.069-.738-.351-1.278-.84-1.628-.574-.405-1.351-.61-2.334-.61-.982 0-1.706.133-2.277.393-.369.168-.701.34-.99.514a.577.577 0 0 1-.763-.175l-.499-.718a.577.577 0 0 1 .17-.82c.382-.241.843-.475 1.384-.71.801-.342 1.883-.513 3.248-.513 1.62 0 2.901.392 3.848 1.18.946.784 1.417 1.901 1.417 3.345l.027 7.873a.58.58 0 0 1-.581.58h-1.145l-.007-.003zM71.146 36.813l.581.606c.266.277.23.712-.06.97a6.62 6.62 0 0 1-1.597 1.028c-.836.389-1.792.583-2.865.583-1.364 0-2.543-.29-3.536-.867a6.011 6.011 0 0 1-2.304-2.37c-.548-1.001-.82-2.155-.82-3.453 0-1.23.282-2.347.846-3.359a6.462 6.462 0 0 1 2.361-2.425c1.01-.607 2.161-.907 3.453-.907 1.073 0 2.019.192 2.839.57a6.477 6.477 0 0 1 1.577 1.026c.296.26.322.711.037.985l-.645.616a.662.662 0 0 1-.903.013 4.192 4.192 0 0 0-.97-.662c-.544-.27-1.191-.405-1.938-.405-.873 0-1.624.214-2.251.636a4.122 4.122 0 0 0-1.435 1.667 5.136 5.136 0 0 0-.491 2.248c0 .81.17 1.513.505 2.208a4.344 4.344 0 0 0 1.43 1.694c.618.432 1.365.65 2.239.65.746 0 1.414-.14 2.005-.42a4.31 4.31 0 0 0 1.02-.665.659.659 0 0 1 .912.04M74.028 38.886V27.763c0-.405.332-.735.74-.735h.973c.409 0 .74.33.74.735v11.123a.738.738 0 0 1-.74.735h-.972a.738.738 0 0 1-.74-.735zM84.577 38.886V27.763c0-.405.332-.735.74-.735h.973c.408 0 .74.33.74.735v11.123a.738.738 0 0 1-.74.735h-.973a.738.738 0 0 1-.74-.735zM90.454 22.908h1.318c.315 0 .57.254.57.564v2.986c0 .313.256.563.572.563h2.573c.315 0 .571.254.571.567v.9a.566.566 0 0 1-.571.564h-2.573a.568.568 0 0 0-.571.563v5.639c0 1.012.16 1.707.478 2.086.319.38.767.57 1.351.57.472 0 .87-.072 1.189-.217.16-.073.312-.162.465-.27.478-.346.73-.01.777.052l.481.643a.558.558 0 0 1-.076.761c-.405.33-.817.58-1.236.752-.554.227-1.215.34-1.978.34-1.328 0-2.311-.367-2.949-1.098-.637-.732-.956-1.856-.956-3.372V23.47c0-.314.256-.564.571-.564M120.668 34.312v-4.173a.61.61 0 0 0-.259-.514 4.5 4.5 0 0 0-.996-.485c-.508-.18-1.129-.27-1.856-.27-1.182 0-2.172.416-2.962 1.246-.79.83-1.189 1.968-1.189 3.414 0 .795.133 1.526.396 2.195.262.67.667 1.197 1.215 1.586.544.389 1.238.583 2.075.583.837 0 1.541-.194 2.058-.583.518-.39.9-.864 1.146-1.42.246-.561.369-1.085.369-1.573m.687 5.31a.632.632 0 0 1-.634-.6l-.05-.999c-.126.145-.359.38-.697.705-.336.327-.787.62-1.352.88-.564.26-1.255.393-2.075.393-1.072 0-2.039-.267-2.892-.801-.856-.534-1.527-1.286-2.019-2.261-.491-.976-.737-2.123-.737-3.44 0-1.194.206-2.219.615-3.076.408-.857.943-1.559 1.597-2.1a6.865 6.865 0 0 1 2.115-1.205c.753-.26 1.467-.393 2.141-.393.674 0 1.288.073 1.786.218a8.946 8.946 0 0 1 1.515.596V22.19c0-.35.285-.633.637-.633h1.185c.352 0 .635.284.635.633l-.024 16.798c0 .353-.289.64-.644.64h-1.102zM43.469 7.152c.753-.488 1.613-.732 2.58-.732.91 0 1.676.158 2.304.475.471.237.883.537 1.235.903.375.405.647.145.647.145l.329-.247s.282-.26-.056-.61a6.243 6.243 0 0 0-1.637-1.22c-.774-.388-1.717-.583-2.826-.583-1.182 0-2.251.29-3.207.867a6.286 6.286 0 0 0-2.265 2.343c-.554.986-.833 2.1-.833 3.345 0 .538.063 1.048.166 1.54.133.632.345 1.232.65 1.789.217.396.476.752.758 1.078.073.085.757.804 1.52 1.282.947.59 2.026.866 3.208.866 1.109 0 2.052-.194 2.825-.583a6.239 6.239 0 0 0 1.637-1.22c.339-.345.057-.609.057-.609l-.329-.247s-.276-.26-.648.145a4.577 4.577 0 0 1-1.235.903c-.627.316-1.397.474-2.304.474-.966 0-1.823-.243-2.58-.731-.936-.606-1.5-1.503-1.76-1.99a5.633 5.633 0 0 1-.654-2.697c0-.975.213-1.901.641-2.722a5.11 5.11 0 0 1 1.773-1.964M62.723 14.574a5.258 5.258 0 0 1-1.856 1.977c-.784.488-1.664.732-2.646.732a4.666 4.666 0 0 1-2.607-.758 5.599 5.599 0 0 1-1.882-1.99 5.379 5.379 0 0 1-.698-2.697c0-.975.226-1.928.681-2.748a5.294 5.294 0 0 1 1.856-1.965c.78-.487 1.663-.731 2.646-.731.983 0 1.836.254 2.62.758a5.648 5.648 0 0 1 1.87 1.99c.464.821.693 1.72.693 2.696 0 .976-.226 1.905-.68 2.736m-1.242-8.41c-.973-.587-2.062-.88-3.26-.88-1.2 0-2.265.293-3.248.88a6.605 6.605 0 0 0-2.347 2.369c-.581.995-.874 2.096-.874 3.305 0 1.21.293 2.31.874 3.306a6.606 6.606 0 0 0 2.347 2.37c.983.586 2.065.88 3.247.88s2.288-.294 3.26-.88a6.676 6.676 0 0 0 2.335-2.37c.58-.992.873-2.096.873-3.306s-.292-2.31-.873-3.305a6.649 6.649 0 0 0-2.334-2.37zM87.007 16.857l-.2-.197c-.158-.159-.43-.142-.61.033 0 0-.508.6-1.6.59-.435 0-.824-.073-1.16-.218-.334-.145-.603-.455-.806-.936-.2-.478-.299-1.206-.299-2.182V6.743h3.689c.252 0 .455-.188.455-.422v-.293c0-.234-.203-.422-.455-.422h-3.689V1.94a.452.452 0 0 0-.455-.452h-.315a.452.452 0 0 0-.455.452v12.306c0 1.101.14 1.951.422 2.548.282.596.677 1.012 1.188 1.245.508.235 1.093.353 1.747.353 1.633.03 2.513-.933 2.513-.933.18-.178.193-.448.033-.606M97.735 13.463c0 .633-.206 1.243-.614 1.83a4.719 4.719 0 0 1-1.624 1.436c-.674.37-1.428.554-2.264.554-.947 0-1.724-.208-2.335-.623-.61-.415-.913-1.074-.913-1.977 0-.307.04-.65.123-1.029a2.56 2.56 0 0 1 .545-1.084c.282-.343.697-.626 1.241-.854.548-.224 1.282-.339 2.212-.339.93 0 1.623.033 2.198.095.574.063 1.049.139 1.43.231v1.76zm-3.875-8.18c-.953 0-1.776.142-2.48.409l-.007-.007-.143.066c-.063.027-.132.046-.196.076-.126.06-.235.115-.352.175l-.073.033-.046.026a8.778 8.778 0 0 0-.485.27l-.338.188a.458.458 0 0 0-.137.623l.11.185c.126.197.402.247.614.112l.31-.175c.228-.139.484-.277.78-.422.607-.297 1.43-.448 2.47-.448 1.238 0 2.184.244 2.838.731.654.488.983 1.418.983 2.792v.705c-.418-.072-.93-.135-1.527-.19a23.521 23.521 0 0 0-2.045-.083c-1.312 0-2.364.194-3.165.583-.8.389-1.384.906-1.746 1.559-.365.65-.545 1.38-.545 2.195 0 .975.223 1.733.668 2.274.445.54 1.01.916 1.693 1.124.68.207 1.368.313 2.062.313.472 0 .993-.07 1.557-.204a5.347 5.347 0 0 0 1.664-.732c.54-.35 1.029-.837 1.46-1.46v1.615c0 .25.193.451.429.451h.299a.438.438 0 0 0 .428-.451v-7.89c0-1.589-.442-2.726-1.325-3.415-.883-.685-2.131-1.028-3.752-1.028h-.003zM151.254 13.463c0 .633-.206 1.243-.614 1.83a4.726 4.726 0 0 1-1.624 1.436c-.674.37-1.428.554-2.264.554-.947 0-1.724-.208-2.335-.623-.61-.415-.913-1.074-.913-1.977 0-.307.04-.65.123-1.029.083-.379.263-.741.545-1.084.282-.343.697-.626 1.242-.854.544-.224 1.281-.339 2.211-.339.93 0 1.623.033 2.198.095.574.063 1.049.139 1.431.231v1.76zm-3.875-8.18c-.953 0-1.776.142-2.48.409l-.007-.007-.142.066c-.064.027-.133.046-.196.076-.127.06-.236.115-.349.175l-.073.033-.047.026a8.705 8.705 0 0 0-.484.27l-.339.188a.459.459 0 0 0-.136.623l.109.185c.127.197.402.247.615.112l.309-.175c.229-.139.484-.277.78-.422.611-.297 1.431-.448 2.47-.448 1.238 0 2.185.244 2.839.731.654.488.983 1.418.983 2.792v.705a20.143 20.143 0 0 0-1.528-.19 23.507 23.507 0 0 0-2.045-.083c-1.311 0-2.364.194-3.164.583-.8.389-1.385.906-1.747 1.559-.365.65-.544 1.38-.544 2.195 0 .975.222 1.733.667 2.274a3.44 3.44 0 0 0 1.694 1.124 7.047 7.047 0 0 0 2.061.313c.472 0 .993-.07 1.558-.204a5.344 5.344 0 0 0 1.663-.732c.541-.35 1.029-.837 1.461-1.46v1.615c0 .25.193.451.428.451h.299a.438.438 0 0 0 .428-.451v-7.89c0-1.589-.441-2.726-1.324-3.415-.884-.685-2.135-1.028-3.752-1.028h-.007zM111.179 14.83a4.672 4.672 0 0 1-2.006 1.817c-.847.405-1.806.61-2.879.61-.322 0-.617-.007-.889-.024a13.695 13.695 0 0 1-2.125-.369.456.456 0 0 1-.342-.445v-4.99c0-.524.089-1.074.272-1.65.183-.577.458-1.121.833-1.625.372-.505.84-.917 1.405-1.233.564-.316 1.228-.475 1.992-.475 1.092 0 1.965.244 2.62.732.654.488 1.128 1.144 1.417 1.964.293.82.435 1.72.435 2.696 0 1.193-.245 2.189-.737 2.993m-.408-8.681c-.837-.577-1.903-.867-3.194-.867-.91 0-1.664.138-2.265.419-.601.28-1.082.613-1.447 1.001a8.323 8.323 0 0 0-.9 1.124V.452a.452.452 0 0 0-.455-.452h-.315a.451.451 0 0 0-.455.452v16.663a.72.72 0 0 0 .498.685c.408.135.9.257 1.464.363.82.154 1.673.23 2.567.23 1.311 0 2.486-.253 3.532-.758a5.961 5.961 0 0 0 2.497-2.221c.618-.976.926-2.159.926-3.55 0-1.245-.199-2.366-.601-3.358-.398-.992-1.019-1.78-1.856-2.356h.004zM179.499 11.107h-9.154a5.399 5.399 0 0 1 .681-2.357 4.685 4.685 0 0 1 1.624-1.694c.684-.425 1.47-.636 2.36-.636 1.292 0 2.351.402 3.181 1.206.794.772 1.282 1.872 1.464 3.3a.162.162 0 0 1-.159.18m.74-2.722c-.518-1.021-1.231-1.792-2.141-2.316-.91-.524-1.936-.785-3.085-.785s-2.234.294-3.151.88a6.003 6.003 0 0 0-2.141 2.37c-.512.995-.764 2.096-.764 3.305 0 1.282.272 2.42.82 3.415a5.818 5.818 0 0 0 2.278 2.317c.973.55 2.078.827 3.317.827.983 0 1.942-.198 2.878-.597.771-.326 1.408-.745 1.916-1.255.332-.317.027-.58.027-.58l-.282-.238s-.289-.237-.618.09c-.392.382-.903.701-1.534.952-.81.326-1.607.488-2.387.488-.983 0-1.846-.231-2.593-.693a4.95 4.95 0 0 1-1.76-1.842 5.585 5.585 0 0 1-.694-2.56h10.084c.335 0 .617-.28.601-.614-.063-1.232-.316-2.287-.764-3.167l-.007.003zM73.241 5.214c-.946 0-1.746.168-2.4.5-.654.334-1.182.73-1.584 1.18-.402.452-.7.867-.9 1.246l-.003-2.152a.452.452 0 0 0-.455-.451h-.216a.452.452 0 0 0-.455.451V17.55c0 .25.203.451.455.451h.276a.452.452 0 0 0 .455-.451V11.58c0-.794.17-1.595.504-2.4a4.936 4.936 0 0 1 1.541-2.016c.69-.54 1.564-.814 2.62-.814.8 0 1.477.135 2.032.405.554.27.98.748 1.268 1.437.292.686.438 1.651.438 2.9v6.457c0 .25.203.451.455.451h.316a.452.452 0 0 0 .454-.451v-6.862c0-1.68-.355-3.012-1.062-3.994-.71-.982-1.956-1.477-3.739-1.477M138.222 14.465a4.59 4.59 0 0 1-.834 1.315 4.516 4.516 0 0 1-1.404 1.058c-.564.28-1.228.418-1.992.418-1.073 0-1.942-.247-2.607-.744a4.15 4.15 0 0 1-1.434-1.951 7.526 7.526 0 0 1-.435-2.588c0-1.318.246-2.382.737-3.196.492-.814 1.132-1.408 1.923-1.787a5.645 5.645 0 0 1 2.47-.57c.637 0 1.202.073 1.693.218.492.145.89.306 1.202.487.183.093.355.195.518.314.163.118.309.24.438.365v5.445c0 .362-.093.768-.272 1.22m1.474-13.79V.455a.447.447 0 0 0-.445-.452h-.308a.447.447 0 0 0-.445.452v6.021a9.071 9.071 0 0 0-1.146-.596c-.365-.145-.77-.28-1.215-.406a5.382 5.382 0 0 0-1.461-.19c-1.255 0-2.371.276-3.343.826a5.93 5.93 0 0 0-2.291 2.317c-.555.992-.834 2.169-.834 3.523 0 1.193.206 2.274.615 3.25.408.976 1.032 1.753 1.869 2.33.837.577 1.892.867 3.167.867.82 0 1.518-.132 2.102-.392.581-.26 1.066-.547 1.448-.854a4.42 4.42 0 0 0 .627-.583c.183-.208.336-.429.465-.663v1.707c0 .25.199.452.445.452h.309a.448.448 0 0 0 .445-.452V.676l-.004.003zM164.977 14.465c-.183.451-.459.89-.834 1.315a4.528 4.528 0 0 1-1.404 1.058c-.565.28-1.229.418-1.992.418-1.073 0-1.943-.247-2.607-.744a4.15 4.15 0 0 1-1.434-1.951 7.527 7.527 0 0 1-.438-2.588c0-1.318.245-2.382.737-3.196.491-.814 1.132-1.408 1.922-1.787a5.648 5.648 0 0 1 2.47-.57c.638 0 1.202.073 1.694.218.491.145.889.306 1.202.487a3.776 3.776 0 0 1 .956.68v5.444c0 .362-.093.768-.272 1.22m1.474-13.79V.455c0-.25-.2-.452-.445-.452h-.309a.447.447 0 0 0-.445.452v6.021a9.129 9.129 0 0 0-1.145-.596c-.366-.145-.771-.28-1.216-.406a5.382 5.382 0 0 0-1.461-.19c-1.255 0-2.37.276-3.343.826a5.937 5.937 0 0 0-2.291 2.317c-.554.992-.833 2.169-.833 3.523 0 1.193.206 2.274.614 3.25.408.976 1.032 1.753 1.869 2.33.837.577 1.893.867 3.168.867.82 0 1.517-.132 2.101-.392.581-.26 1.066-.547 1.448-.854.236-.181.445-.376.628-.583.182-.208.335-.429.464-.663v1.707c0 .25.2.452.445.452h.309a.447.447 0 0 0 .445-.452V.676l-.003.003zM116.149 3.965h.402a.386.386 0 0 0 .388-.386V3.18a.386.386 0 0 0-.388-.385h-.402a.386.386 0 0 0-.389.385v.4c0 .213.173.385.389.385zM125.283 2.798h-.402a.387.387 0 0 0-.388.386v.398c0 .215.172.386.388.386h.402a.385.385 0 0 0 .388-.386v-.398a.385.385 0 0 0-.388-.386zM116.564 5.606h-.432a.398.398 0 0 0-.398.395v11.67c0 .218.179.396.398.396h.432a.398.398 0 0 0 .398-.395V6.002a.398.398 0 0 0-.398-.396zM120.93 0h-.432a.398.398 0 0 0-.398.395v17.277c0 .217.179.395.398.395h.432a.398.398 0 0 0 .398-.395V.395A.398.398 0 0 0 120.93 0zM125.273 5.606h-.432a.398.398 0 0 0-.398.395v11.67c0 .218.179.396.398.396h.432a.398.398 0 0 0 .398-.395V6.002a.398.398 0 0 0-.398-.396z" fill="#102850"></path></g><defs><clipPath id="a"><path fill="#fff" d="M0 0h181v40H0z"></path></clipPath></defs></svg> 